<svg width="572" height="853" viewBox="0 0 572 853" fill="none" xmlns="http://www.w3.org/2000/svg">
<mask id="mask0_118_2624" style="mask-type:luminance" maskUnits="userSpaceOnUse" x="194" y="192" width="425" height="468">
<path d="M486.313 644.814C594.604 599.198 646.563 464.452 602.367 343.852C558.172 223.251 434.557 162.465 326.266 208.081C217.975 253.698 166.016 388.443 210.211 509.044C254.407 629.644 378.022 690.431 486.313 644.814Z" fill="white"/>
</mask>
<g mask="url(#mask0_118_2624)">
<path d="M276.033 152.796C318.596 168.833 362.851 171.102 405.79 187.1C436.158 198.414 467.466 204.79 497.368 217.86C577.68 252.966 656.472 293.419 735.762 331.191" stroke="white" stroke-opacity="0.45" stroke-width="0.75" stroke-miterlimit="10"/>
<path d="M273.222 159.673C315.622 174.911 359.292 179.778 401.795 195.294C432.859 206.634 464.768 211.748 495.342 225.09C575.179 259.927 654.052 300.824 732.67 338.949" stroke="white" stroke-opacity="0.45" stroke-width="0.75" stroke-miterlimit="10"/>
<path d="M270.867 165.153C312.471 180.177 355.522 189.265 397.314 203.698C429.788 214.911 463.111 217.554 494.996 231.465C529.55 246.542 560.467 268.851 594.331 285.394C638.912 307.171 684.949 325.059 729.59 346.665" stroke="white" stroke-opacity="0.45" stroke-width="0.75" stroke-miterlimit="10"/>
<path d="M268.885 169.435C309.299 184.742 351.46 199.174 392.435 212.235C426.895 223.218 462.312 222.324 496.04 237.105C530.666 252.28 558.932 278.432 592.286 296.025C635.718 318.933 682.372 333.347 726.537 354.34" stroke="white" stroke-opacity="0.45" stroke-width="0.75" stroke-miterlimit="10"/>
<path d="M267.198 172.794C306.576 188.929 346.875 208.216 387.242 220.896C423.925 232.417 462.14 226.183 498.175 242.18C532.993 257.636 557.914 288.184 590.598 307.277C632.395 331.696 679.995 341.962 723.496 361.99" stroke="white" stroke-opacity="0.45" stroke-width="0.75" stroke-miterlimit="10"/>
<path d="M265.694 175.488C303.761 192.689 341.742 218.694 381.798 229.67C421.196 240.466 462.707 229.416 501.093 246.871C536.217 262.844 557.282 298.098 589.164 319.031C628.894 345.117 677.866 350.902 720.465 369.683" stroke="white" stroke-opacity="0.45" stroke-width="0.75" stroke-miterlimit="10"/>
<path d="M264.26 177.777C301.285 196.396 335.814 229.102 376.157 238.558C418.214 248.417 463.902 232.246 504.481 251.368C540.006 268.109 556.898 308.195 587.873 331.183C625.245 358.919 675.944 360.142 717.437 377.5" stroke="white" stroke-opacity="0.45" stroke-width="0.75" stroke-miterlimit="10"/>
<path d="M262.876 179.892C299.248 200.25 329.07 239.306 370.451 247.484C415.204 256.328 465.09 235.525 508.075 255.766C544.11 272.733 556.864 318.535 586.648 343.475C621.591 372.736 674.128 369.447 714.411 385.328" stroke="white" stroke-opacity="0.45" stroke-width="0.75" stroke-miterlimit="10"/>
<path d="M261.469 182.082C297.544 204.403 321.658 249.282 364.77 256.406C411.934 264.198 466.553 238.682 511.583 260.207C548.086 277.657 556.814 328.927 585.394 355.721C618.074 386.36 672.263 378.668 711.384 393.155" stroke="white" stroke-opacity="0.45" stroke-width="0.75" stroke-miterlimit="10"/>
<path d="M259.963 184.594C295.989 208.925 313.904 259.023 359.201 265.285C408.499 272.101 467.905 242.09 514.71 264.842C551.69 282.821 556.57 339.301 584.015 367.749C614.781 399.64 670.224 387.703 708.35 400.982" stroke="white" stroke-opacity="0.45" stroke-width="0.75" stroke-miterlimit="10"/>
<path d="M258.285 187.677C294.43 213.845 306.196 268.49 353.835 274.083C404.98 280.087 468.832 245.944 517.164 269.82C554.683 288.354 555.896 349.506 582.417 379.379C611.731 412.397 667.939 396.47 705.308 408.807" stroke="white" stroke-opacity="0.45" stroke-width="0.75" stroke-miterlimit="10"/>
<path d="M256.357 191.58C292.793 219.201 298.883 277.612 348.759 282.757C374.092 285.372 401.865 279.605 426.698 276.321C453.177 272.821 492.505 262.205 518.649 275.287C556.835 294.393 554.555 359.361 580.501 390.427C608.893 424.42 665.377 404.904 702.256 416.623" stroke="white" stroke-opacity="0.45" stroke-width="0.75" stroke-miterlimit="10"/>
<path d="M254.105 196.549C291.08 225.059 292.247 286.273 344.065 291.266C370.167 293.782 399.035 287.287 424.541 283.588C451.416 279.69 492.202 267.941 518.872 281.391C557.924 301.085 552.325 368.68 578.176 400.717C606.216 435.464 662.527 412.949 699.19 424.433" stroke="white" stroke-opacity="0.45" stroke-width="0.75" stroke-miterlimit="10"/>
<path d="M251.455 202.839C289.329 231.511 286.512 294.344 339.842 299.576C366.357 302.178 396.126 295.06 421.967 291.089C449.227 286.9 490.402 274.576 517.54 288.286C557.721 308.582 548.976 377.305 575.345 410.072C603.668 445.267 659.366 420.537 696.108 432.236" stroke="white" stroke-opacity="0.45" stroke-width="0.75" stroke-miterlimit="10"/>
<path d="M248.262 210.454C285.974 239.076 283.471 301.903 336.576 306.898C363.244 309.407 392.981 302.605 419.028 298.82C446.291 294.859 487.623 282.735 514.75 296.135C555.221 316.128 545.708 385.338 572.085 418.034C600.748 453.565 656.031 427.979 693.009 440.014" stroke="white" stroke-opacity="0.45" stroke-width="0.75" stroke-miterlimit="10"/>
<path d="M244.137 218.315C281.111 246.825 282.484 307.712 334.169 312.462C360.966 314.925 390.127 309.421 416.487 306.387C443.592 303.267 485.54 292.12 512.289 305.141C551.931 324.437 543.05 393.49 568.522 425.613C597.01 461.537 652.843 435.727 689.896 447.806" stroke="white" stroke-opacity="0.45" stroke-width="0.75" stroke-miterlimit="10"/>
<path d="M239.179 226.236C276.077 254.153 281.953 311.574 332.183 316.843C359.031 319.658 387.76 315.707 414.376 313.746C441.501 311.746 483.867 302.176 510.269 315.19C548.917 334.242 540.023 401.75 564.62 433.331C592.815 469.53 649.74 443.555 686.778 455.604" stroke="white" stroke-opacity="0.45" stroke-width="0.75" stroke-miterlimit="10"/>
<path d="M233.547 234.213C270.795 261.084 281.843 313.929 330.519 320.277C357.364 323.778 385.752 321.578 412.557 320.967C439.827 320.345 482.405 312.833 508.502 326.143C546.046 345.291 536.658 410.112 560.424 441.169C588.247 477.526 646.699 451.447 683.648 463.407" stroke="white" stroke-opacity="0.45" stroke-width="0.75" stroke-miterlimit="10"/>
<path d="M227.4 242.233C265.214 267.653 282.07 315.2 329.084 323.001C355.879 327.447 383.974 327.159 410.897 328.124C438.392 329.11 480.958 324.025 506.804 337.862C543.275 357.385 532.803 418.632 555.987 449.115C583.654 485.491 643.53 459.336 680.512 471.218" stroke="white" stroke-opacity="0.45" stroke-width="0.75" stroke-miterlimit="10"/>
<path d="M220.901 250.284C259.363 273.963 282.456 315.767 327.787 325.247C354.493 330.833 382.302 332.569 409.262 335.282C437.025 338.076 479.326 335.666 504.989 350.197C541.268 370.737 526.952 427.851 551.361 457.133C581.31 493.06 638.711 466.708 677.367 479.02" stroke="white" stroke-opacity="0.45" stroke-width="0.75" stroke-miterlimit="10"/>
<path d="M214.192 258.388C251.182 278.909 279.858 314.029 320.706 325.802C354.675 335.592 390.235 339.461 424.797 345.474C448.04 349.516 480.617 350.545 501.607 363.758C537.999 386.667 521.487 439.15 549.057 468.456C579.05 500.337 636.991 474.945 674.204 486.857" stroke="white" stroke-opacity="0.45" stroke-width="0.75" stroke-miterlimit="10"/>
<path d="M207.454 266.477C245.512 285.497 279.087 314.159 319.412 327.517C353.209 338.714 388.26 345.636 422.641 354.087C446.03 359.836 477.92 362.996 498.938 376.732C533.713 399.458 517.649 448.122 544.125 476.473C573.93 508.391 633.854 482.883 671.051 494.676" stroke="white" stroke-opacity="0.45" stroke-width="0.75" stroke-miterlimit="10"/>
<path d="M200.837 274.57C240.109 292.273 277.777 314.356 317.99 329.474C351.572 342.098 386.011 352.034 420.062 362.922C443.566 370.437 474.485 375.666 495.635 389.906C528.851 412.269 513.697 457.246 539.178 484.519C568.977 516.415 630.618 490.79 667.893 502.502" stroke="white" stroke-opacity="0.45" stroke-width="0.75" stroke-miterlimit="10"/>
<path d="M194.501 282.656C235.051 299.304 275.917 314.913 316.349 331.916C349.655 345.923 383.362 358.769 416.921 372.012C440.477 381.307 470.145 388.48 491.529 403.155C523.304 424.961 509.625 466.506 534.278 492.577C564.366 524.396 627.205 498.627 664.73 510.326" stroke="white" stroke-opacity="0.45" stroke-width="0.75" stroke-miterlimit="10"/>
<path d="M188.607 290.727C230.347 306.643 273.595 316.18 314.399 335.096C347.351 350.371 380.185 365.96 413.072 381.398C436.577 392.432 464.747 401.376 486.443 416.357C516.943 437.416 505.419 475.892 529.482 500.631C560.292 532.307 623.521 506.357 661.562 518.147" stroke="white" stroke-opacity="0.45" stroke-width="0.75" stroke-miterlimit="10"/>
<path d="M183.315 298.598C225.993 314.2 270.917 318.376 312.077 339.116C367.188 366.885 428.893 394.119 480.259 429.301C509.692 449.46 501.13 485.334 524.913 508.635C557.015 540.086 619.555 513.917 658.476 525.944" stroke="white" stroke-opacity="0.45" stroke-width="0.75" stroke-miterlimit="10"/>
<path d="M178.785 306.389C220.15 321.595 264.715 321.213 304.531 341.735C361.436 371.066 419.724 406.775 473.628 442.127C502.63 461.148 497.54 498.188 523.263 518.762C558.301 546.784 615.347 521.165 655.412 533.724" stroke="white" stroke-opacity="0.45" stroke-width="0.75" stroke-miterlimit="10"/>
<path d="M175.173 314.175C216.595 330.225 261.486 326.85 301.315 348.432C357.507 378.882 409.854 420.272 464.289 454.347C493.11 472.389 493.15 507.468 519.403 526.619C556.718 553.838 610.795 528.437 652.324 541.507" stroke="white" stroke-opacity="0.45" stroke-width="0.75" stroke-miterlimit="10"/>
<path d="M172.55 322.219C213.935 337.469 259.261 336.513 298.765 357.899C353.476 387.518 406.138 425.99 458.713 459.897C487.312 478.34 490.686 514.401 517.331 533.54C554.283 560.08 608.045 536.874 649.205 549.261" stroke="white" stroke-opacity="0.45" stroke-width="0.75" stroke-miterlimit="10"/>
<path d="M170.78 330.727C213.864 346.509 260.559 349.553 301.416 372.227C352.102 400.356 403.237 432.118 451.894 464.171C480.233 482.84 487.748 516.905 513.691 537.043C550.411 565.545 604.465 544.64 646.062 556.983" stroke="white" stroke-opacity="0.45" stroke-width="0.75" stroke-miterlimit="10"/>
<path d="M169.711 339.611C212.752 356.016 258.752 364.098 300.015 385.717C348.587 411.166 398.95 438.146 445.401 467.879C474.812 486.706 486.514 521.422 513.955 541.727C550.81 568.998 601.621 551.979 642.905 564.671" stroke="white" stroke-opacity="0.45" stroke-width="0.75" stroke-miterlimit="10"/>
<path d="M169.2 348.784C260.011 385.825 353.478 419.336 438.625 471.112C469.678 489.993 485.738 525.048 515.048 545.654C551.801 571.493 599.112 559.032 639.739 572.328" stroke="white" stroke-opacity="0.45" stroke-width="0.75" stroke-miterlimit="10"/>
<path d="M169.093 358.04C212.307 377.208 254.92 397.946 298.356 416.513C342.16 435.237 389.898 450.451 431.663 474.098C464.725 492.815 485.985 527.004 516.791 549.026C551.984 574.182 597.668 566.132 636.626 579.956" stroke="white" stroke-opacity="0.45" stroke-width="0.75" stroke-miterlimit="10"/>
<path d="M169.251 367.347C212.384 388.267 253.073 416.57 297.888 433.024C339.243 448.209 385.092 456.699 424.569 477.135C459.897 495.424 486.093 529.465 518.949 552.053C553.362 575.712 595.969 572.948 633.549 587.549" stroke="white" stroke-opacity="0.45" stroke-width="0.75" stroke-miterlimit="10"/>
<path d="M169.502 376.698C212.141 399.257 251.563 435.964 297.486 449.877C336.516 461.702 379.976 463.148 417.375 480.574C455.111 498.159 486.193 532.13 521.269 555.017C554.872 576.944 594.438 579.81 630.475 595.179" stroke="white" stroke-opacity="0.45" stroke-width="0.75" stroke-miterlimit="10"/>
<path d="M169.551 386.035C212.375 410.67 252.694 457.885 301.037 467.697C335.95 474.783 376.831 469.034 410.002 483.677C448.262 500.566 483.627 533.111 519.345 555.77C553.414 577.383 591.411 586.409 627.405 603.178" stroke="white" stroke-opacity="0.45" stroke-width="0.75" stroke-miterlimit="10"/>
<path d="M169.435 395.33C211.888 421.487 251.044 475.46 300.18 484.021C333.44 489.816 370.2 475.969 402.562 488.792C443.102 504.856 482.952 537.007 521.045 559.492C554.447 579.209 589.902 593.743 624.314 611.147" stroke="white" stroke-opacity="0.45" stroke-width="0.75" stroke-miterlimit="10"/>
<path d="M168.999 404.485C209.972 431.11 250.18 494.206 299.09 499.703C330.955 503.285 363.601 483.959 395.248 495.245C437.941 510.471 481.862 541.656 522.264 563.78C555.396 581.922 588.005 601.156 621.218 619.106" stroke="white" stroke-opacity="0.45" stroke-width="0.75" stroke-miterlimit="10"/>
<path d="M168.11 413.431C207.795 440.141 249.157 511.227 297.667 514.397C328.557 516.415 356.732 493.054 388.141 503.349C432.878 518.009 480.089 547.249 522.787 568.843C556.195 585.74 585.562 608.636 618.107 627.036" stroke="white" stroke-opacity="0.45" stroke-width="0.75" stroke-miterlimit="10"/>
<path d="M166.638 422.083C193.004 440.077 212.706 462.419 234.764 485.898C251.531 503.744 270.724 526.679 295.827 527.743C326.104 529.026 349.877 503.505 381.338 513.399C428.036 528.089 477.39 553.988 522.412 574.883C556.587 590.745 582.581 616.261 614.992 634.918" stroke="white" stroke-opacity="0.45" stroke-width="0.75" stroke-miterlimit="10"/>
<path d="M164.427 430.294C191.358 448.47 210.52 471.497 232.501 495.842C248.562 513.631 268.626 538.034 293.466 539.365C323.403 540.969 343.373 515.519 374.926 525.674C423.366 541.262 473.653 562.155 520.952 582.106C556.168 596.962 579.194 624.202 611.909 642.761" stroke="white" stroke-opacity="0.45" stroke-width="0.75" stroke-miterlimit="10"/>
<path d="M161.353 438.09C188.415 456.225 207.461 479.344 229.438 503.816C245.367 521.554 265.756 546.104 290.412 548.035C320.053 550.355 338.903 526.58 370.182 536.872C419.221 553.009 469.579 570.746 517.849 589.822C553.781 604.021 575.762 632.019 608.811 650.557" stroke="white" stroke-opacity="0.45" stroke-width="0.75" stroke-miterlimit="10"/>
<path d="M157.404 445.396C184.107 463.452 203.553 486.165 225.607 510.09C241.851 527.712 262.001 551.583 286.611 553.786C315.913 556.409 335.878 534.658 366.6 544.374C415.104 559.714 464.621 576.699 512.45 594.724C549.606 608.728 572.067 638.427 605.73 658.297" stroke="white" stroke-opacity="0.45" stroke-width="0.75" stroke-miterlimit="10"/>
<path d="M152.702 452.285C193.197 479.446 232.802 552.541 282.227 558.074C311.178 561.315 332.492 542.517 362.595 551.639C410.104 566.036 458.22 581.053 505.28 597.329C544.436 610.872 568.038 644.098 602.672 666.021" stroke="white" stroke-opacity="0.45" stroke-width="0.75" stroke-miterlimit="10"/>
<path d="M147.399 458.84C188.649 485.896 227.846 554.052 277.377 561.165C305.937 565.266 328.818 550.21 358.247 558.704C404.349 572.009 450.821 584.336 496.761 598.351C538.103 610.964 564.076 649.507 599.622 673.705" stroke="white" stroke-opacity="0.45" stroke-width="0.75" stroke-miterlimit="10"/>
<path d="M141.631 465.143C183.871 491.922 222.514 554.295 272.167 563.341C300.096 568.432 325.077 558.636 353.634 565.621C398.185 576.515 442.879 587.082 487.322 598.536C530.574 609.681 560.434 655.097 596.579 681.367" stroke="white" stroke-opacity="0.45" stroke-width="0.75" stroke-miterlimit="10"/>
<path d="M135.537 471.283C178.834 497.568 217.054 553.697 266.702 564.893C294.171 571.088 320.945 565.712 348.834 572.442C391.362 582.706 434.623 589.745 477.391 598.627C522.013 607.892 557.153 661.148 593.539 689.02" stroke="white" stroke-opacity="0.45" stroke-width="0.75" stroke-miterlimit="10"/>
<path d="M129.262 477.341C172.893 502.423 209.625 549.952 257.574 565.025C285.405 573.775 315.349 570.936 343.833 578.272C385.784 589.076 429.646 589.702 471.669 600.041C515.707 610.875 554.416 668.044 590.49 696.66" stroke="white" stroke-opacity="0.45" stroke-width="0.75" stroke-miterlimit="10"/>
<path d="M122.942 483.414C167.083 507.482 204.545 549.429 251.906 566.017C279.51 575.685 310.464 577.621 338.783 584.811C378.991 595.02 421.392 593.345 461.876 601.976C486.347 607.194 503.802 627.97 522.13 645.535C543.448 665.966 564.587 685.809 587.42 704.304" stroke="white" stroke-opacity="0.45" stroke-width="0.75" stroke-miterlimit="10"/>
<path d="M116.722 489.591C161.144 512.568 199.705 549.36 246.308 567.243C273.911 577.835 305.373 584.167 333.802 591.484C372.271 601.384 414.884 594.705 452.892 606.119C500.955 620.553 544.301 679.431 584.323 711.955" stroke="white" stroke-opacity="0.45" stroke-width="0.75" stroke-miterlimit="10"/>
<path d="M110.739 495.928C155.235 517.861 195.113 550.052 240.893 568.978C268.742 580.49 300.191 590.536 328.988 598.352C366.49 608.53 407.983 602.122 445.167 613.214C494.152 627.826 540.158 686.814 581.208 719.61" stroke="white" stroke-opacity="0.45" stroke-width="0.75" stroke-miterlimit="10"/>
<path d="M105.162 502.528C178.535 537.32 246.665 582.207 324.443 605.486C361.465 616.566 402.333 612.412 439.142 624.001C488.771 639.628 535.702 694.788 578.055 727.229" stroke="white" stroke-opacity="0.45" stroke-width="0.75" stroke-miterlimit="10"/>
<path d="M100.05 509.49C173.255 543.355 244.214 588.431 320.457 614.144C358.564 626.996 401.102 625.975 438.862 640.08C487.037 658.075 532.329 704.836 574.868 734.996" stroke="white" stroke-opacity="0.45" stroke-width="0.75" stroke-miterlimit="10"/>
<path d="M95.6298 516.934C169.332 550.957 241.337 591.651 316.526 621.711C355.952 637.473 398.49 644.52 437.657 661.056C484.476 680.821 528.035 715.686 571.617 742.722" stroke="white" stroke-opacity="0.45" stroke-width="0.75" stroke-miterlimit="10"/>
<path d="M92.0327 524.973C250.853 599.956 410.167 673.751 568.297 750.436" stroke="white" stroke-opacity="0.45" stroke-width="0.75" stroke-miterlimit="10"/>
</g>
</svg>
