<svg width="151" height="167" viewBox="0 0 151 167" fill="none" xmlns="http://www.w3.org/2000/svg">
<path d="M84.9563 119.071L55.6165 82.5015" stroke="white" stroke-opacity="0.42" stroke-width="2" stroke-miterlimit="10"/>
<path d="M92.7801 0.999512L59.2338 27.9162" stroke="white" stroke-opacity="0.42" stroke-width="2" stroke-miterlimit="10"/>
<path d="M1.54695 74.2031L-31.9993 101.12" stroke="white" stroke-opacity="0.42" stroke-width="2" stroke-miterlimit="10"/>
<path d="M113.09 63.8618L68.6249 56.8222" stroke="white" stroke-opacity="0.42" stroke-width="2" stroke-miterlimit="10"/>
<path d="M27.7224 89.6579L24.9684 134.55" stroke="white" stroke-opacity="0.42" stroke-width="2" stroke-miterlimit="10"/>
<path d="M104.302 95.5386L64.5619 71.5129" stroke="white" stroke-opacity="0.42" stroke-width="2" stroke-miterlimit="10"/>
<path d="M12.9684 84.2682L-7.03694 122.891" stroke="white" stroke-opacity="0.42" stroke-width="2" stroke-miterlimit="10"/>
<path d="M109.175 31.7544L66.8151 42.0051" stroke="white" stroke-opacity="0.42" stroke-width="2" stroke-miterlimit="10"/>
<path d="M42.2043 89.0564L56.219 133.252" stroke="white" stroke-opacity="0.42" stroke-width="2" stroke-miterlimit="10"/>
<path d="M96.6337 107.352L61.0157 77.0169" stroke="white" stroke-opacity="0.42" stroke-width="2" stroke-miterlimit="10"/>
<path d="M7.30933 80.183L-19.3745 114.053" stroke="white" stroke-opacity="0.42" stroke-width="2" stroke-miterlimit="10"/>
<path d="M112.457 46.3921L68.3321 48.7504" stroke="white" stroke-opacity="0.42" stroke-width="2" stroke-miterlimit="10"/>
<path d="M35.6567 90.0385L42.1108 135.375" stroke="white" stroke-opacity="0.42" stroke-width="2" stroke-miterlimit="10"/>
<path d="M110.441 79.8188L67.3997 64.2129" stroke="white" stroke-opacity="0.42" stroke-width="2" stroke-miterlimit="10"/>
<path d="M20.3559 87.7847L9.01026 130.497" stroke="white" stroke-opacity="0.42" stroke-width="2" stroke-miterlimit="10"/>
<path d="M102.186 15.21L63.5845 34.4085" stroke="white" stroke-opacity="0.42" stroke-width="2" stroke-miterlimit="10"/>
<path d="M49.4852 86.3958L71.8564 127.496" stroke="white" stroke-opacity="0.42" stroke-width="2" stroke-miterlimit="10"/>
</svg>
