<svg width="58" height="106" viewBox="0 0 58 106" fill="none" xmlns="http://www.w3.org/2000/svg">
<path d="M0.00268555 52.9966H31.0695" stroke="white" stroke-opacity="0.26" stroke-width="2" stroke-miterlimit="10"/>
<path d="M57.7834 -0.00732422L57.782 28.4923" stroke="white" stroke-opacity="0.26" stroke-width="2" stroke-miterlimit="10"/>
<path d="M57.7794 77.5L57.778 106" stroke="white" stroke-opacity="0.26" stroke-width="2" stroke-miterlimit="10"/>
<path d="M16.9282 15.5171L38.8917 35.6696" stroke="white" stroke-opacity="0.26" stroke-width="2" stroke-miterlimit="10"/>
<path d="M38.8916 70.3228L16.9234 90.4763" stroke="white" stroke-opacity="0.26" stroke-width="2" stroke-miterlimit="10"/>
<path d="M4.18323 33.2075L33.0003 43.8477" stroke="white" stroke-opacity="0.26" stroke-width="2" stroke-miterlimit="10"/>
<path d="M47.8078 75.7285L36.2081 102.168" stroke="white" stroke-opacity="0.26" stroke-width="2" stroke-miterlimit="10"/>
<path d="M35.1366 4.23486L47.31 30.4534" stroke="white" stroke-opacity="0.26" stroke-width="2" stroke-miterlimit="10"/>
<path d="M33.2068 62.5999L4.62589 73.7744" stroke="white" stroke-opacity="0.26" stroke-width="2" stroke-miterlimit="10"/>
<path d="M1.2417 42.0815L31.6413 47.9511" stroke="white" stroke-opacity="0.26" stroke-width="2" stroke-miterlimit="10"/>
<path d="M52.2781 76.9753L45.8792 104.864" stroke="white" stroke-opacity="0.26" stroke-width="2" stroke-miterlimit="10"/>
<path d="M26.2179 8.60205L43.1868 32.4728" stroke="white" stroke-opacity="0.26" stroke-width="2" stroke-miterlimit="10"/>
<path d="M35.4076 66.3822L9.38661 81.9545" stroke="white" stroke-opacity="0.26" stroke-width="2" stroke-miterlimit="10"/>
<path d="M9.77478 23.5063L35.5852 39.363" stroke="white" stroke-opacity="0.26" stroke-width="2" stroke-miterlimit="10"/>
<path d="M42.9181 73.3567L25.6324 97.0391" stroke="white" stroke-opacity="0.26" stroke-width="2" stroke-miterlimit="10"/>
<path d="M46.5675 1.00098L52.5939 28.9586" stroke="white" stroke-opacity="0.26" stroke-width="2" stroke-miterlimit="10"/>
<path d="M31.5773 57.7528L1.10219 63.2869" stroke="white" stroke-opacity="0.26" stroke-width="2" stroke-miterlimit="10"/>
</svg>
