<svg width="16" height="128" viewBox="0 0 16 128" fill="none" xmlns="http://www.w3.org/2000/svg">
<path d="M15.517 126.923L1 114.33" stroke="white" stroke-opacity="0.68" stroke-width="0.5" stroke-miterlimit="10"/>
<path d="M15.517 120.626L1 108.033" stroke="white" stroke-opacity="0.68" stroke-width="0.5" stroke-miterlimit="10"/>
<path d="M15.517 114.33L1 101.736" stroke="white" stroke-opacity="0.68" stroke-width="0.5" stroke-miterlimit="10"/>
<path d="M15.517 108.033L1 95.4399" stroke="white" stroke-opacity="0.68" stroke-width="0.5" stroke-miterlimit="10"/>
<path d="M15.517 101.736L1 89.144" stroke="white" stroke-opacity="0.68" stroke-width="0.5" stroke-miterlimit="10"/>
<path d="M15.517 95.44L1 82.8467" stroke="white" stroke-opacity="0.68" stroke-width="0.5" stroke-miterlimit="10"/>
<path d="M15.517 89.1441L1 76.5508" stroke="white" stroke-opacity="0.68" stroke-width="0.5" stroke-miterlimit="10"/>
<path d="M15.517 82.8467L1 70.2534" stroke="white" stroke-opacity="0.68" stroke-width="0.5" stroke-miterlimit="10"/>
<path d="M15.517 76.5512L1 63.958" stroke="white" stroke-opacity="0.68" stroke-width="0.5" stroke-miterlimit="10"/>
<path d="M15.517 70.2539L1 57.6606" stroke="white" stroke-opacity="0.68" stroke-width="0.5" stroke-miterlimit="10"/>
<path d="M15.517 63.958L1 51.3647" stroke="white" stroke-opacity="0.68" stroke-width="0.5" stroke-miterlimit="10"/>
<path d="M15.517 57.6605L1 45.0684" stroke="white" stroke-opacity="0.68" stroke-width="0.5" stroke-miterlimit="10"/>
<path d="M15.517 51.3648L1 38.7715" stroke="white" stroke-opacity="0.68" stroke-width="0.5" stroke-miterlimit="10"/>
<path d="M15.517 45.0684L1 32.4751" stroke="white" stroke-opacity="0.68" stroke-width="0.5" stroke-miterlimit="10"/>
<path d="M15.517 38.772L1 26.1787" stroke="white" stroke-opacity="0.68" stroke-width="0.5" stroke-miterlimit="10"/>
<path d="M15.517 32.4751L1 19.8818" stroke="white" stroke-opacity="0.68" stroke-width="0.5" stroke-miterlimit="10"/>
<path d="M15.517 26.1786L1 13.5864" stroke="white" stroke-opacity="0.68" stroke-width="0.5" stroke-miterlimit="10"/>
<path d="M15.517 19.8823L1 7.28906" stroke="white" stroke-opacity="0.68" stroke-width="0.5" stroke-miterlimit="10"/>
<path d="M15.517 13.5864L1 0.993164" stroke="white" stroke-opacity="0.68" stroke-width="0.5" stroke-miterlimit="10"/>
</svg>
