<svg width="30" height="30" viewBox="0 0 30 30" fill="none" xmlns="http://www.w3.org/2000/svg">
<path d="M15.791 2.0625C18.4922 2.19727 21.1641 3.23438 23.3496 4.99805C23.9824 5.50781 25.0137 6.58594 25.5234 7.26562C27.7676 10.2715 28.5703 13.8281 27.8262 17.5195C26.8887 22.1719 23.8887 25.6582 19.5234 27.1523C18.0176 27.668 16.6523 27.8906 15 27.8906C8.66601 27.8906 3.59765 23.9121 2.26171 17.9062C1.88671 16.2305 1.79882 14.5137 2.00976 13.1309C2.58398 9.44531 4.66406 6.22266 7.79296 4.16016C8.43164 3.74414 9.76171 3.07617 10.4883 2.80664C12.0996 2.2207 13.9043 1.96289 15.791 2.0625ZM13.043 3.1875C7.6875 4.03125 3.82031 7.9043 3.02343 13.2188C2.86523 14.2559 2.85937 14.373 2.86523 15.2109C2.88281 19.916 5.90625 24.2988 10.3828 26.1094C12.5801 26.9941 14.918 27.2285 17.2852 26.7949C22.875 25.7754 27.1172 20.7832 27.1406 15.2051C27.1465 12.4922 26.25 9.75 24.668 7.64648C22.8516 5.23828 19.8516 3.54492 16.7285 3.16992C16.4355 3.13477 16.1191 3.09375 16.0254 3.08203C15.6445 3.0293 13.5937 3.10547 13.043 3.1875Z" fill="#858585"/>
<path d="M12.4277 10.1309C12.6094 10.3184 12.6328 10.4238 12.5332 10.623C12.4922 10.6934 11.6074 11.6016 10.5527 12.6387L8.64257 14.5254H15.6797L22.7168 14.5312L22.8398 14.666C23.0156 14.8535 23.0098 15.1758 22.834 15.3398L22.6992 15.4688L15.668 15.4746H8.64257L10.5527 17.3613C11.6016 18.3984 12.4922 19.3066 12.5332 19.377C12.6328 19.5645 12.6152 19.6582 12.4453 19.8574C12.3281 19.998 12.2461 20.0391 12.082 20.0391C11.8828 20.0391 11.7422 19.9102 9.45116 17.625C7.16601 15.3457 7.03124 15.1992 7.03124 15C7.03124 14.8008 7.16601 14.6543 9.45116 12.375C11.6484 10.1836 11.8945 9.96094 12.0644 9.96094C12.1992 9.96094 12.3047 10.0137 12.4277 10.1309Z" fill="#858585"/>
</svg>
