<svg width="200" height="200" viewBox="0 0 200 200" fill="none" xmlns="http://www.w3.org/2000/svg">
<path d="M14.064 100.048L14.624 140.192L172.32 194.768L173.104 140.464C166.368 135.664 160.56 132.816 156.448 131.088C151.264 128.912 144.912 126.256 137.424 126.448C134.992 126.512 131.248 126.912 125.312 129.552C114.56 134.336 111.168 140.096 106.048 143.424C100.864 146.8 92.192 148.848 77.12 142.176C73.024 136.8 67.792 130.656 61.488 124.752C56.656 120.224 52.208 116.816 48.416 114.24C43.728 110.672 37.52 106.624 30.256 103.744C23.68 101.136 18.16 100.256 14.048 100.032L14.064 100.048Z" fill="#FC0000"/>
<path d="M47.44 74.8C47.52 84.096 42.208 90.448 35.744 89.04C29.456 87.68 24.4 79.456 24.272 70.624C24.16 61.76 29.056 55.264 35.376 56.176C41.872 57.104 47.36 65.472 47.44 74.8Z" fill="#FC0000"/>
<path d="M172.32 197.168C172.048 197.168 171.792 197.12 171.536 197.04L13.84 142.464C12.88 142.128 12.24 141.232 12.224 140.224L10.688 28.88C10.688 28.192 10.976 27.52 11.488 27.056C12 26.592 12.688 26.384 13.376 26.464L174.752 45.936C175.968 46.08 176.88 47.12 176.864 48.352L174.736 194.8C174.736 195.568 174.352 196.288 173.712 196.736C173.296 197.024 172.816 197.168 172.336 197.168H172.32ZM16.992 138.48L169.968 191.424L172.016 50.448L15.52 31.568L17.008 138.48H16.992Z" fill="black"/>
<path d="M94.48 170.24C93.648 170.24 92.832 169.808 92.384 169.024C85.056 156.064 76.816 144.576 67.856 134.88C45.264 110.384 24.224 104.032 13.696 102.416C12.384 102.224 11.488 100.992 11.68 99.6801C11.888 98.3681 13.12 97.4721 14.416 97.6641C25.568 99.3761 47.792 106.048 71.392 131.6C80.592 141.568 89.056 153.36 96.56 166.64C97.216 167.792 96.8 169.264 95.648 169.904C95.28 170.112 94.864 170.208 94.464 170.208L94.48 170.24Z" fill="black"/>
<path d="M93.44 148.352C87.92 148.352 82.176 147.008 76.272 144.336C75.072 143.792 74.528 142.368 75.072 141.152C75.616 139.952 77.04 139.408 78.256 139.952C84.992 142.992 91.424 144.112 97.408 143.264C105.008 142.176 109.504 138.32 114.256 134.24C118.672 130.448 123.248 126.512 130.336 124.848C142.032 122.096 156.864 126.672 174.448 138.48C175.552 139.216 175.84 140.704 175.104 141.808C174.368 142.912 172.88 143.2 171.776 142.464C155.344 131.44 141.792 127.088 131.44 129.52C125.488 130.928 121.552 134.304 117.392 137.888C112.32 142.24 107.088 146.752 98.096 148.032C96.576 148.256 95.024 148.352 93.456 148.352H93.44Z" fill="black"/>
<path d="M122.4 133.28C121.424 133.28 120.496 132.672 120.144 131.696C112.832 111.648 97.632 97.152 82.336 95.6C69.92 94.336 59.52 102.208 55.136 116.144C54.736 117.408 53.392 118.112 52.128 117.712C50.864 117.312 50.16 115.968 50.56 114.704C55.6 98.72 68.256 89.344 82.832 90.832C99.92 92.56 116.736 108.336 124.672 130.064C125.12 131.312 124.48 132.688 123.248 133.136C122.976 133.232 122.704 133.28 122.432 133.28H122.4Z" fill="black"/>
<path d="M37.136 125.488C35.824 125.488 34.752 124.432 34.736 123.12L34.256 78.9601C34.256 77.6321 35.312 76.5441 36.624 76.5281C37.92 76.5281 39.04 77.5841 39.056 78.8961L39.536 123.056C39.536 124.384 38.48 125.472 37.168 125.488H37.136Z" fill="black"/>
<path d="M36.656 81.328C36.128 81.328 35.6 81.152 35.152 80.8C34.112 79.968 33.952 78.464 34.784 77.424L38.528 72.784C39.36 71.744 40.864 71.584 41.904 72.416C42.944 73.248 43.104 74.752 42.272 75.792L38.528 80.432C38.048 81.024 37.36 81.328 36.656 81.328Z" fill="black"/>
<path d="M36.656 81.328C35.808 81.328 34.992 80.88 34.56 80.096L28.784 69.68C28.144 68.528 28.56 67.056 29.712 66.416C30.864 65.776 32.336 66.192 32.976 67.344L38.752 77.76C39.392 78.912 38.976 80.384 37.824 81.024C37.456 81.232 37.056 81.328 36.656 81.328Z" fill="black"/>
<path d="M38.192 92.528C37.408 92.528 36.608 92.448 35.808 92.272C28.16 90.592 22.048 81.104 21.92 70.656C21.84 64.416 23.872 59.008 27.52 55.808C30 53.616 33.104 52.672 36.272 53.12C44.304 54.256 50.912 64.08 51.008 75.008C51.072 81.456 48.896 86.944 45.056 90.048C43.04 91.68 40.656 92.544 38.192 92.544V92.528ZM34.72 57.728C33.248 57.728 31.872 58.272 30.64 59.344C28.08 61.6 26.592 65.808 26.64 70.576C26.752 78.784 31.312 86.432 36.816 87.632C38.736 88.048 40.496 87.632 42.064 86.352C44.736 84.176 46.304 79.952 46.272 75.024C46.192 66.48 41.312 58.592 35.6 57.776C35.296 57.728 35.008 57.712 34.704 57.712L34.72 57.728Z" fill="black"/>
<path d="M151.024 89.6479C150.896 89.6479 150.752 89.6479 150.624 89.6159L118.24 84.1599C117.408 84.0159 116.704 83.4559 116.4 82.6719C115.552 80.4959 115.12 78.2079 115.12 75.8719C115.136 71.4399 116.832 67.4239 119.776 64.8639C122.304 62.6719 125.536 61.7119 128.88 62.1439C130.704 62.3839 132.176 63.0239 132.896 63.3759C136 64.9119 138.128 67.4399 139.424 69.4399C139.776 69.3919 140.128 69.3599 140.48 69.3439C140.592 69.3439 141.488 69.3119 142.416 69.4399C148.816 70.3519 153.968 76.9119 153.888 84.0479C153.888 85.3919 153.68 86.7039 153.296 87.9519C152.976 88.9759 152.048 89.6479 151.008 89.6479H151.024ZM120.464 79.6639L149.104 84.4799C149.104 84.3199 149.104 84.1599 149.12 83.9999C149.168 79.2639 145.808 74.7839 141.76 74.1919C141.344 74.1279 140.848 74.1439 140.688 74.1439C140.144 74.1599 139.616 74.2719 139.12 74.4639C137.984 74.8959 136.72 74.3999 136.16 73.3279C135.376 71.8239 133.632 69.0879 130.8 67.6959C130.352 67.4719 129.408 67.0719 128.272 66.9279C126.288 66.6559 124.448 67.2159 122.96 68.5119C121.056 70.1759 119.968 72.8639 119.952 75.9199C119.952 77.1999 120.112 78.4639 120.464 79.6799V79.6639Z" fill="black"/>
<path d="M13.072 31.264C12.048 31.264 11.088 30.592 10.784 29.568C10.4 28.304 11.104 26.96 12.384 26.576L29.584 21.328C30.848 20.944 32.192 21.648 32.576 22.928C32.96 24.192 32.256 25.536 30.976 25.92L13.776 31.168C13.536 31.232 13.312 31.28 13.072 31.28V31.264Z" fill="black"/>
<path d="M175.568 50.416C174.624 50.416 173.712 49.84 173.344 48.912C172.848 47.68 173.44 46.288 174.672 45.792L185.664 41.376C186.896 40.88 188.288 41.472 188.784 42.704C189.28 43.936 188.688 45.328 187.456 45.824L176.464 50.24C176.176 50.352 175.872 50.416 175.568 50.416Z" fill="black"/>
<path d="M173.104 197.168C172.224 197.168 171.376 196.688 170.96 195.856C170.368 194.672 170.832 193.232 172.016 192.64L183.44 186.88C184.624 186.288 186.064 186.752 186.672 187.936C187.264 189.12 186.8 190.56 185.616 191.152L174.192 196.912C173.84 197.088 173.472 197.168 173.12 197.168H173.104Z" fill="black"/>
<path d="M186.864 43.744C186.768 43.744 186.688 43.744 186.592 43.744L30.016 26C28.704 25.856 27.76 24.656 27.904 23.344C28.048 22.032 29.248 21.088 30.56 21.232L187.152 38.96C188.464 39.104 189.408 40.304 189.264 41.616C189.12 42.848 188.08 43.744 186.88 43.744H186.864Z" fill="black"/>
<path d="M184.528 191.424H184.496C183.168 191.408 182.112 190.304 182.128 188.992L184.528 42.4959C184.544 41.1679 185.632 40.1279 186.96 40.1279C188.288 40.1439 189.344 41.2479 189.328 42.5599L186.928 189.056C186.912 190.368 185.84 191.424 184.528 191.424Z" fill="black"/>
<path d="M175.92 44.6081C175.92 44.6081 175.856 44.6081 175.824 44.6081L173.328 44.3201C172.896 44.2721 172.576 43.8721 172.624 43.4401C172.672 43.0081 173.056 42.6721 173.504 42.7361L176 43.0241C176.432 43.0721 176.752 43.4721 176.704 43.9041C176.656 44.3201 176.304 44.6081 175.904 44.6081H175.92ZM168.656 43.7921C168.656 43.7921 168.592 43.7921 168.56 43.7921L163.792 43.2481C163.36 43.2001 163.04 42.8001 163.088 42.3681C163.136 41.9361 163.536 41.6161 163.968 41.6641L168.736 42.2081C169.168 42.2561 169.488 42.6561 169.44 43.0881C169.392 43.5041 169.04 43.7921 168.64 43.7921H168.656ZM159.12 42.7201C159.12 42.7201 159.056 42.7201 159.024 42.7201L154.256 42.1761C153.824 42.1281 153.504 41.7281 153.552 41.2961C153.6 40.8641 153.984 40.5281 154.432 40.5921L159.2 41.1361C159.632 41.1841 159.952 41.5841 159.904 42.0161C159.856 42.4321 159.504 42.7201 159.104 42.7201H159.12ZM149.584 41.6481C149.584 41.6481 149.52 41.6481 149.488 41.6481L144.72 41.1041C144.288 41.0561 143.968 40.6561 144.016 40.2241C144.064 39.7921 144.448 39.4721 144.896 39.5201L149.664 40.0641C150.096 40.1121 150.416 40.5121 150.368 40.9441C150.32 41.3601 149.968 41.6481 149.568 41.6481H149.584ZM140.048 40.5761C140.048 40.5761 139.984 40.5761 139.952 40.5761L135.184 40.0321C134.752 39.9841 134.432 39.5841 134.48 39.1521C134.528 38.7201 134.912 38.3841 135.36 38.4481L140.128 38.9921C140.56 39.0401 140.88 39.4401 140.832 39.8721C140.784 40.2881 140.432 40.5761 140.032 40.5761H140.048ZM130.512 39.5041C130.512 39.5041 130.448 39.5041 130.416 39.5041L125.648 38.9601C125.216 38.9121 124.896 38.5121 124.944 38.0801C124.992 37.6481 125.376 37.3121 125.824 37.3761L130.592 37.9201C131.024 37.9681 131.344 38.3681 131.296 38.8001C131.248 39.2161 130.896 39.5041 130.496 39.5041H130.512ZM120.976 38.4161C120.976 38.4161 120.912 38.4161 120.88 38.4161L116.112 37.8721C115.68 37.8241 115.36 37.4241 115.408 36.9921C115.456 36.5601 115.84 36.2401 116.288 36.2881L121.056 36.8321C121.488 36.8801 121.808 37.2801 121.76 37.7121C121.712 38.1281 121.36 38.4161 120.96 38.4161H120.976ZM111.44 37.3441C111.44 37.3441 111.376 37.3441 111.344 37.3441L106.576 36.8001C106.144 36.7521 105.824 36.3521 105.872 35.9201C105.92 35.4881 106.304 35.1521 106.752 35.2161L111.52 35.7601C111.952 35.8081 112.272 36.2081 112.224 36.6401C112.176 37.0561 111.824 37.3441 111.424 37.3441H111.44ZM101.904 36.2721C101.904 36.2721 101.84 36.2721 101.808 36.2721L97.04 35.7281C96.608 35.6801 96.288 35.2801 96.336 34.8481C96.384 34.4161 96.784 34.0961 97.216 34.1441L101.984 34.6881C102.416 34.7361 102.736 35.1361 102.688 35.5681C102.64 35.9841 102.288 36.2721 101.888 36.2721H101.904ZM92.368 35.2001C92.368 35.2001 92.304 35.2001 92.272 35.2001L87.504 34.6561C87.072 34.6081 86.752 34.2081 86.8 33.7761C86.848 33.3441 87.232 33.0241 87.68 33.0721L92.448 33.6161C92.88 33.6641 93.2 34.0641 93.152 34.4961C93.104 34.9121 92.752 35.2001 92.352 35.2001H92.368ZM82.832 34.1281C82.832 34.1281 82.768 34.1281 82.736 34.1281L77.968 33.5841C77.536 33.5361 77.216 33.1361 77.264 32.7041C77.312 32.2721 77.712 31.9361 78.144 32.0001L82.912 32.5441C83.344 32.5921 83.664 32.9921 83.616 33.4241C83.568 33.8401 83.216 34.1281 82.816 34.1281H82.832ZM73.296 33.0561C73.296 33.0561 73.232 33.0561 73.2 33.0561L68.432 32.5121C68 32.4641 67.68 32.0641 67.728 31.6321C67.776 31.2001 68.16 30.8801 68.608 30.9281L73.376 31.4721C73.808 31.5201 74.128 31.9201 74.08 32.3521C74.032 32.7681 73.68 33.0561 73.28 33.0561H73.296ZM63.76 31.9841C63.76 31.9841 63.696 31.9841 63.664 31.9841L58.896 31.4401C58.464 31.3921 58.144 30.9921 58.192 30.5601C58.24 30.1281 58.64 29.7921 59.072 29.8561L63.84 30.4001C64.272 30.4481 64.592 30.8481 64.544 31.2801C64.496 31.6961 64.144 31.9841 63.744 31.9841H63.76ZM54.224 30.8961C54.224 30.8961 54.16 30.8961 54.128 30.8961L49.36 30.3521C48.928 30.3041 48.608 29.9041 48.656 29.4721C48.704 29.0401 49.088 28.7201 49.536 28.7681L54.304 29.3121C54.736 29.3601 55.056 29.7601 55.008 30.1921C54.96 30.6081 54.608 30.8961 54.208 30.8961H54.224ZM44.688 29.8241C44.688 29.8241 44.624 29.8241 44.592 29.8241L39.824 29.2801C39.392 29.2321 39.072 28.8321 39.12 28.4001C39.168 27.9681 39.552 27.6481 40 27.6961L44.768 28.2401C45.2 28.2881 45.52 28.6881 45.472 29.1201C45.424 29.5361 45.072 29.8241 44.672 29.8241H44.688ZM35.152 28.7521C35.152 28.7521 35.088 28.7521 35.056 28.7521L30.288 28.2081C29.856 28.1601 29.536 27.7601 29.584 27.3281C29.632 26.8961 30.016 26.5601 30.464 26.6241L35.232 27.1681C35.664 27.2161 35.984 27.6161 35.936 28.0481C35.888 28.4641 35.536 28.7521 35.136 28.7521H35.152Z" fill="#FC0000"/>
<path d="M178.336 188.528C177.888 188.528 177.536 188.16 177.552 187.712L177.584 185.632C177.584 185.184 177.904 184.8 178.4 184.848C178.848 184.848 179.2 185.216 179.184 185.664L179.152 187.744C179.152 188.176 178.784 188.528 178.352 188.528H178.336ZM178.448 181.648C178 181.648 177.648 181.28 177.664 180.832L177.744 176.032C177.744 175.6 178.112 175.248 178.544 175.248C178.992 175.248 179.344 175.616 179.328 176.064L179.248 180.864C179.248 181.296 178.88 181.648 178.448 181.648ZM178.608 172.048C178.16 172.048 177.808 171.68 177.824 171.232L177.904 166.432C177.904 166 178.272 165.648 178.704 165.648C179.152 165.648 179.504 166.016 179.488 166.464L179.408 171.264C179.408 171.696 179.04 172.048 178.608 172.048ZM178.768 162.448C178.32 162.448 177.968 162.08 177.984 161.632L178.064 156.832C178.064 156.4 178.432 156.048 178.864 156.048C179.312 156.048 179.664 156.416 179.648 156.864L179.568 161.664C179.568 162.096 179.2 162.448 178.768 162.448ZM178.928 152.848C178.48 152.848 178.128 152.48 178.144 152.032L178.224 147.232C178.224 146.784 178.624 146.448 179.04 146.448C179.488 146.448 179.84 146.816 179.824 147.264L179.744 152.064C179.744 152.496 179.376 152.848 178.944 152.848H178.928ZM179.088 143.248C178.64 143.248 178.288 142.88 178.304 142.432L178.384 137.632C178.384 137.184 178.72 136.848 179.2 136.848C179.648 136.848 180 137.216 179.984 137.664L179.904 142.464C179.904 142.896 179.536 143.248 179.104 143.248H179.088ZM179.248 133.648C178.8 133.648 178.448 133.28 178.464 132.832L178.544 128.032C178.544 127.6 178.912 127.248 179.344 127.248C179.792 127.248 180.144 127.616 180.128 128.064L180.048 132.864C180.048 133.296 179.68 133.648 179.248 133.648ZM179.408 124.048C178.96 124.048 178.608 123.68 178.624 123.232L178.704 118.432C178.704 118 179.072 117.648 179.504 117.648C179.952 117.648 180.304 118.016 180.288 118.464L180.208 123.264C180.208 123.696 179.84 124.048 179.408 124.048ZM179.568 114.448C179.12 114.448 178.768 114.08 178.784 113.632L178.864 108.832C178.864 108.384 179.168 108 179.68 108.048C180.128 108.048 180.48 108.416 180.464 108.864L180.384 113.664C180.384 114.096 180.016 114.448 179.584 114.448H179.568ZM179.728 104.848C179.28 104.848 178.928 104.48 178.944 104.032L179.024 99.232C179.024 98.8 179.392 98.448 179.824 98.448C180.272 98.448 180.624 98.816 180.608 99.264L180.528 104.064C180.528 104.496 180.16 104.848 179.728 104.848ZM179.888 95.248C179.44 95.248 179.088 94.88 179.104 94.432L179.184 89.632C179.184 89.2 179.552 88.848 179.984 88.848C180.432 88.848 180.784 89.216 180.768 89.664L180.688 94.464C180.688 94.896 180.32 95.248 179.888 95.248ZM180.048 85.648C179.6 85.648 179.248 85.28 179.264 84.832L179.344 80.032C179.344 79.584 179.712 79.232 180.16 79.248C180.608 79.248 180.96 79.616 180.944 80.064L180.864 84.864C180.864 85.296 180.496 85.648 180.064 85.648H180.048ZM180.208 76.048C179.76 76.048 179.408 75.68 179.424 75.232L179.504 70.432C179.504 69.984 179.808 69.632 180.32 69.648C180.768 69.648 181.12 70.016 181.104 70.464L181.024 75.264C181.024 75.696 180.656 76.048 180.224 76.048H180.208ZM180.368 66.448C179.92 66.448 179.568 66.08 179.584 65.632L179.664 60.832C179.664 60.384 180.064 60.048 180.48 60.048C180.928 60.048 181.28 60.416 181.264 60.864L181.184 65.664C181.184 66.096 180.816 66.448 180.384 66.448H180.368ZM180.528 56.848C180.08 56.848 179.728 56.48 179.744 56.032L179.824 51.232C179.824 50.784 180.16 50.464 180.64 50.448C181.088 50.448 181.44 50.816 181.424 51.264L181.344 56.064C181.344 56.496 180.976 56.848 180.544 56.848H180.528Z" fill="#FC0000"/>
<path d="M185.792 42.4801C185.344 42.4801 184.992 42.1281 184.992 41.6801V11.1201C184.992 10.6721 185.344 10.3201 185.792 10.3201C186.24 10.3201 186.592 10.6721 186.592 11.1201V41.6801C186.592 42.1281 186.24 42.4801 185.792 42.4801Z" fill="black"/>
<path d="M172.944 50.16C172.496 50.16 172.144 49.808 172.144 49.36V18.768C172.144 18.32 172.496 17.968 172.944 17.968C173.392 17.968 173.744 18.32 173.744 18.768V49.36C173.744 49.808 173.392 50.16 172.944 50.16Z" fill="black"/>
<path d="M173.584 30.7519C173.264 30.7519 172.976 30.5599 172.848 30.2559C172.672 29.8559 172.88 29.3759 173.28 29.2159L185.488 24.1599C185.888 23.9999 186.368 24.1919 186.528 24.5919C186.688 24.9919 186.496 25.4719 186.096 25.6319L173.888 30.6879C173.792 30.7359 173.68 30.7519 173.584 30.7519Z" fill="black"/>
<path d="M145.248 18.4159V21.0079L136.704 20.2879V18.2719L141.008 13.6479C142.016 12.5599 142.192 11.8559 142.192 11.1999C142.192 10.1279 141.584 9.45594 140.384 9.40794C139.424 9.35994 138.608 9.75994 138.064 10.6399L136.208 9.07194C137.056 7.58394 138.608 6.67194 140.64 6.75194C143.184 6.86394 144.896 8.51194 144.896 11.0239C144.896 12.3679 144.576 13.5679 142.96 15.2479L140.336 18.0159L145.248 18.3999V18.4159Z" fill="black"/>
<path d="M149.072 16.944C149.104 14.4 150.88 12.656 153.28 12.784C154.512 12.864 155.584 13.392 156.304 14.336L155.552 15.072C154.944 14.32 154.192 13.952 153.328 13.888C151.552 13.776 150.224 15.104 150.208 17.008C150.192 18.912 151.472 20.416 153.248 20.56C154.112 20.624 154.88 20.352 155.504 19.696L156.24 20.544C155.488 21.376 154.416 21.76 153.184 21.664C150.816 21.456 149.088 19.456 149.104 16.928L149.072 16.944Z" fill="black"/>
<path d="M165.744 22.6561L165.856 16.0961L162.72 21.3121L162.176 21.2641L159.28 15.6961L159.184 22.0961L158.064 22.0001L158.192 13.1841L159.152 13.2481L162.496 19.7281L166.08 13.6641L167.088 13.7281L166.928 22.7681L165.76 22.6721L165.744 22.6561Z" fill="black"/>
<path d="M173.312 30.8161C173.312 30.8161 173.248 30.8161 173.216 30.8161L131.2 26.0641C130.768 26.0161 130.448 25.6161 130.496 25.1841C130.544 24.7521 130.928 24.4321 131.376 24.4801L173.392 29.2321C173.824 29.2801 174.144 29.6801 174.096 30.1121C174.048 30.5281 173.696 30.8161 173.296 30.8161H173.312Z" fill="black"/>
</svg>
