<svg width="42" height="92" viewBox="0 0 42 92" fill="none" xmlns="http://www.w3.org/2000/svg">
<path d="M0 45.8787H22.6316" stroke="white" stroke-opacity="0.36" stroke-width="2" stroke-miterlimit="10"/>
<path d="M42.0896 0V24.6686" stroke="white" stroke-opacity="0.36" stroke-width="2" stroke-miterlimit="10"/>
<path d="M42.0896 67.0889V91.7575" stroke="white" stroke-opacity="0.36" stroke-width="2" stroke-miterlimit="10"/>
<path d="M12.3276 13.4376L28.3302 30.8812" stroke="white" stroke-opacity="0.36" stroke-width="2" stroke-miterlimit="10"/>
<path d="M28.3302 60.877L12.3276 78.3197" stroke="white" stroke-opacity="0.36" stroke-width="2" stroke-miterlimit="10"/>
<path d="M3.04395 28.7502L24.038 37.9601" stroke="white" stroke-opacity="0.36" stroke-width="2" stroke-miterlimit="10"/>
<path d="M34.8252 65.5557L26.3761 88.4401" stroke="white" stroke-opacity="0.36" stroke-width="2" stroke-miterlimit="10"/>
<path d="M25.5907 3.67163L34.4622 26.3658" stroke="white" stroke-opacity="0.36" stroke-width="2" stroke-miterlimit="10"/>
<path d="M24.1887 54.1929L3.36853 63.8632" stroke="white" stroke-opacity="0.36" stroke-width="2" stroke-miterlimit="10"/>
<path d="M0.9021 36.431L23.0482 41.511" stroke="white" stroke-opacity="0.36" stroke-width="2" stroke-miterlimit="10"/>
<path d="M38.0821 66.6346L33.4218 90.7741" stroke="white" stroke-opacity="0.36" stroke-width="2" stroke-miterlimit="10"/>
<path d="M19.0944 7.45178L31.459 28.1138" stroke="white" stroke-opacity="0.36" stroke-width="2" stroke-miterlimit="10"/>
<path d="M25.7921 57.4666L6.83691 70.9437" stroke="white" stroke-opacity="0.36" stroke-width="2" stroke-miterlimit="10"/>
<path d="M7.11658 20.3531L25.9211 34.0783" stroke="white" stroke-opacity="0.36" stroke-width="2" stroke-miterlimit="10"/>
<path d="M31.2633 63.5032L18.6719 84.0009" stroke="white" stroke-opacity="0.36" stroke-width="2" stroke-miterlimit="10"/>
<path d="M33.9181 0.872681L38.3118 25.0722" stroke="white" stroke-opacity="0.36" stroke-width="2" stroke-miterlimit="10"/>
<path d="M23.0019 49.9967L0.801392 54.7853" stroke="white" stroke-opacity="0.36" stroke-width="2" stroke-miterlimit="10"/>
</svg>
