<svg width="59" height="128" viewBox="0 0 59 128" fill="none" xmlns="http://www.w3.org/2000/svg">
<path d="M58.09 64.1647H26.855" stroke="white" stroke-opacity="0.42" stroke-width="2" stroke-miterlimit="10"/>
<path d="M0 0.845215V34.8916" stroke="white" stroke-opacity="0.42" stroke-width="2" stroke-miterlimit="10"/>
<path d="M0 93.4379V127.484" stroke="white" stroke-opacity="0.42" stroke-width="2" stroke-miterlimit="10"/>
<path d="M41.076 19.3912L18.99 43.4659" stroke="white" stroke-opacity="0.42" stroke-width="2" stroke-miterlimit="10"/>
<path d="M18.99 84.8646L41.076 108.938" stroke="white" stroke-opacity="0.42" stroke-width="2" stroke-miterlimit="10"/>
<path d="M53.889 40.5249L24.914 53.2359" stroke="white" stroke-opacity="0.42" stroke-width="2" stroke-miterlimit="10"/>
<path d="M10.026 91.322L21.687 122.906" stroke="white" stroke-opacity="0.42" stroke-width="2" stroke-miterlimit="10"/>
<path d="M22.771 5.91284L10.527 37.2341" stroke="white" stroke-opacity="0.42" stroke-width="2" stroke-miterlimit="10"/>
<path d="M24.706 75.6396L53.441 88.9861" stroke="white" stroke-opacity="0.42" stroke-width="2" stroke-miterlimit="10"/>
<path d="M56.845 51.1256L26.28 58.1368" stroke="white" stroke-opacity="0.42" stroke-width="2" stroke-miterlimit="10"/>
<path d="M5.53101 92.811L11.963 126.127" stroke="white" stroke-opacity="0.42" stroke-width="2" stroke-miterlimit="10"/>
<path d="M31.737 11.1298L14.672 39.6464" stroke="white" stroke-opacity="0.42" stroke-width="2" stroke-miterlimit="10"/>
<path d="M22.493 80.1578L48.654 98.7583" stroke="white" stroke-opacity="0.42" stroke-width="2" stroke-miterlimit="10"/>
<path d="M48.268 28.9355L22.315 47.8783" stroke="white" stroke-opacity="0.42" stroke-width="2" stroke-miterlimit="10"/>
<path d="M14.942 88.489L32.32 116.779" stroke="white" stroke-opacity="0.42" stroke-width="2" stroke-miterlimit="10"/>
<path d="M11.278 2.04968L5.21402 35.4486" stroke="white" stroke-opacity="0.42" stroke-width="2" stroke-miterlimit="10"/>
<path d="M26.344 69.8481L56.984 76.4571" stroke="white" stroke-opacity="0.42" stroke-width="2" stroke-miterlimit="10"/>
</svg>
