<svg width="115" height="115" viewBox="0 0 115 115" fill="none" xmlns="http://www.w3.org/2000/svg">
<path d="M0 57.498H30.9407" stroke="white" stroke-opacity="0.44" stroke-width="2" stroke-miterlimit="10"/>
<path d="M57.5436 0V30.9169" stroke="white" stroke-opacity="0.44" stroke-width="2" stroke-miterlimit="10"/>
<path d="M57.5436 84.082V115" stroke="white" stroke-opacity="0.44" stroke-width="2" stroke-miterlimit="10"/>
<path d="M16.8541 16.8418L38.7328 38.7037" stroke="white" stroke-opacity="0.44" stroke-width="2" stroke-miterlimit="10"/>
<path d="M38.7328 76.2959L16.8541 98.1578" stroke="white" stroke-opacity="0.44" stroke-width="2" stroke-miterlimit="10"/>
<path d="M4.16016 36.0332L32.864 47.5759" stroke="white" stroke-opacity="0.44" stroke-width="2" stroke-miterlimit="10"/>
<path d="M47.6123 82.1602L36.0607 110.842" stroke="white" stroke-opacity="0.44" stroke-width="2" stroke-miterlimit="10"/>
<path d="M34.9875 4.60156L47.1151 33.045" stroke="white" stroke-opacity="0.44" stroke-width="2" stroke-miterlimit="10"/>
<path d="M33.0703 67.9189L4.60498 80.0383" stroke="white" stroke-opacity="0.44" stroke-width="2" stroke-miterlimit="10"/>
<path d="M1.23303 45.6592L31.5108 52.0263" stroke="white" stroke-opacity="0.44" stroke-width="2" stroke-miterlimit="10"/>
<path d="M52.0658 83.5117L45.6938 113.767" stroke="white" stroke-opacity="0.44" stroke-width="2" stroke-miterlimit="10"/>
<path d="M26.1057 9.33984L43.0099 35.2347" stroke="white" stroke-opacity="0.44" stroke-width="2" stroke-miterlimit="10"/>
<path d="M35.2618 72.0234L9.34692 88.9146" stroke="white" stroke-opacity="0.44" stroke-width="2" stroke-miterlimit="10"/>
<path d="M9.72852 25.5078L35.4383 42.71" stroke="white" stroke-opacity="0.44" stroke-width="2" stroke-miterlimit="10"/>
<path d="M42.7428 79.5869L25.5275 105.278" stroke="white" stroke-opacity="0.44" stroke-width="2" stroke-miterlimit="10"/>
<path d="M46.3723 1.09375L52.3794 31.4221" stroke="white" stroke-opacity="0.44" stroke-width="2" stroke-miterlimit="10"/>
<path d="M31.4461 62.6602L1.09448 68.6627" stroke="white" stroke-opacity="0.44" stroke-width="2" stroke-miterlimit="10"/>
<path d="M115 57.5H84.0581" stroke="white" stroke-opacity="0.44" stroke-width="2" stroke-miterlimit="10"/>
<path d="M98.1448 98.1587L76.2673 76.2969" stroke="white" stroke-opacity="0.44" stroke-width="2" stroke-miterlimit="10"/>
<path d="M76.2673 38.7037L98.1448 16.8418" stroke="white" stroke-opacity="0.44" stroke-width="2" stroke-miterlimit="10"/>
<path d="M110.839 78.9676L82.1348 67.4248" stroke="white" stroke-opacity="0.44" stroke-width="2" stroke-miterlimit="10"/>
<path d="M67.3877 32.8399L78.9393 4.1582" stroke="white" stroke-opacity="0.44" stroke-width="2" stroke-miterlimit="10"/>
<path d="M80.0124 110.398L67.8837 81.9551" stroke="white" stroke-opacity="0.44" stroke-width="2" stroke-miterlimit="10"/>
<path d="M81.9297 47.0794L110.394 34.96" stroke="white" stroke-opacity="0.44" stroke-width="2" stroke-miterlimit="10"/>
<path d="M113.766 69.3427L83.488 62.9756" stroke="white" stroke-opacity="0.44" stroke-width="2" stroke-miterlimit="10"/>
<path d="M62.9342 31.4878L69.305 1.2334" stroke="white" stroke-opacity="0.44" stroke-width="2" stroke-miterlimit="10"/>
<path d="M88.8944 105.662L71.9902 79.7656" stroke="white" stroke-opacity="0.44" stroke-width="2" stroke-miterlimit="10"/>
<path d="M79.7369 42.9781L105.653 26.0869" stroke="white" stroke-opacity="0.44" stroke-width="2" stroke-miterlimit="10"/>
<path d="M105.27 89.4929L79.5605 72.292" stroke="white" stroke-opacity="0.44" stroke-width="2" stroke-miterlimit="10"/>
<path d="M72.2573 35.4117L89.4715 9.72168" stroke="white" stroke-opacity="0.44" stroke-width="2" stroke-miterlimit="10"/>
<path d="M68.6265 113.907L62.6194 83.5771" stroke="white" stroke-opacity="0.44" stroke-width="2" stroke-miterlimit="10"/>
<path d="M83.5526 52.3404L113.904 46.3379" stroke="white" stroke-opacity="0.44" stroke-width="2" stroke-miterlimit="10"/>
</svg>
