<svg width="475" height="377" viewBox="0 0 475 377" fill="none" xmlns="http://www.w3.org/2000/svg">
<path d="M493.044 128.015C452.919 115.211 415.394 77.607 372.574 77.805C338.318 77.9627 304.995 101.126 270.636 93.5664C234.348 85.5811 208.317 49.7954 173.572 37.2655C134.427 23.1482 91.9495 46.4812 51.7837 41.3919" stroke="white" stroke-width="0.25" stroke-miterlimit="10"/>
<path d="M55.0976 53.8768C94.1315 57.8319 136.36 35.9413 174.311 49.4539C207.901 61.4138 233.908 94.5477 268.916 102.22C302.372 109.551 336.391 91.0033 369.975 91.4935C412.433 92.1126 450.863 126.24 490.822 139.162" stroke="white" stroke-width="0.25" stroke-miterlimit="10"/>
<path d="M58.9022 62.159C97.4888 66.7853 137.735 51.1944 175.588 61.7261C208.584 70.9052 234.429 99.3206 267.915 107.199C301.442 115.086 336.108 103.883 369.959 107.636C411.192 112.209 448.845 138.352 488.583 150.142" stroke="white" stroke-width="0.25" stroke-miterlimit="10"/>
<path d="M62.2144 68.3264C101.58 74.621 142.374 64.7561 181.199 74.9446C211.315 82.8479 236.871 103.789 267.161 111.473C299.897 119.778 333.885 118.191 366.886 124.607C407.675 132.537 446.135 150.601 486.386 161.013" stroke="white" stroke-width="0.25" stroke-miterlimit="10"/>
<path d="M64.039 74.7933C104.237 82.5022 145.687 77.8882 185.552 87.8153C213.226 94.7061 238.524 109.483 266.163 116.812C338.51 135.994 411.396 155.018 484.195 171.894" stroke="white" stroke-width="0.25" stroke-miterlimit="10"/>
<path d="M63.3825 83.8919C104.009 91.7099 145.89 89.8283 186.164 99.8121C212.748 106.402 237.897 118.376 264.426 125.356C337.084 144.472 408.855 165.659 482 182.917" stroke="white" stroke-width="0.25" stroke-miterlimit="10"/>
<path d="M59.178 94.4997C99.0084 102.299 140.1 98.0613 179.609 107.987C208.197 115.171 233.065 133.168 261.682 140.725C332.944 159.543 405.053 177.791 476.752 194.375" stroke="white" stroke-width="0.25" stroke-miterlimit="10"/>
<path d="M52.2006 104.427C91.0816 111.231 132.501 101.013 170.371 113.767C201.866 124.375 225.589 152.61 257.929 161.312C289.61 169.835 322.806 165.225 354.905 170.339C393.774 176.531 429.36 196.362 467.354 206.455" stroke="white" stroke-width="0.25" stroke-miterlimit="10"/>
<path d="M44.2796 114.171C81.0211 119.542 121.273 103.499 156.503 117.803C192.332 132.35 216.246 174.613 254.026 184.144C286.555 192.351 320.68 176.359 353.527 177.786C390.544 179.394 421.692 207.767 456.574 218.821" stroke="white" stroke-width="0.25" stroke-miterlimit="10"/>
<path d="M37.2918 124.165C72.5318 128.531 110.922 107.719 144.476 122.862C183.762 140.591 208.273 194.806 250.399 205.131C283.993 213.365 318.562 187.14 352.045 185.643C387.999 184.035 414.505 219.258 447.19 230.95" stroke="white" stroke-width="0.25" stroke-miterlimit="10"/>
<path d="M33.089 134.822C67.9611 139.278 104.576 115.909 137.95 131.049C179.215 149.767 203.224 209.683 247.602 220.405C282.647 228.871 315.718 196.939 350.239 194.831C386.655 192.608 409.371 231.018 441.975 242.493" stroke="white" stroke-width="0.25" stroke-miterlimit="10"/>
<path d="M30.8978 145.961C66.0037 150.413 103.342 127.648 136.884 142.847C177.579 161.286 201.705 219.668 245.451 230.238C279.774 238.53 313.648 209.665 347.665 207.883C383.444 206.008 410.294 241.678 442.798 253.318" stroke="white" stroke-width="0.25" stroke-miterlimit="10"/>
<path d="M28.7242 157.1C63.7243 161.817 100.134 141.616 134.137 153.979C176.437 169.359 199.477 226.483 243.367 237.822C278.233 246.829 312.993 221.494 347.993 222.887C383.537 224.3 414.229 253.09 447.793 263.704" stroke="white" stroke-width="0.25" stroke-miterlimit="10"/>
<path d="M26.5523 168.245C62.4571 173.334 100.084 154.418 135.011 166.728C176.048 181.193 199.025 233.794 241.324 245.416C275.398 254.779 310.414 235.584 344.823 238.722C382.514 242.158 417.68 264.232 454.189 273.967" stroke="white" stroke-width="0.25" stroke-miterlimit="10"/>
<path d="M24.3741 179.373C61.5071 184.904 102.642 165.208 138.47 179.99C176.463 195.664 199.333 242.229 239.221 253.731C271.585 263.064 305.97 250.507 338.866 253.708C379.55 257.668 419.377 275.072 459.207 284.37" stroke="white" stroke-width="0.25" stroke-miterlimit="10"/>
<path d="M22.1831 190.515C59.5986 196.051 101.381 176.934 137.434 191.821C174.807 207.254 197.839 252.27 237.07 263.557C269.068 272.762 303.682 263.117 336.293 266.731C377.749 271.325 419.409 285.48 460.067 295.19" stroke="white" stroke-width="0.25" stroke-miterlimit="10"/>
<path d="M20.4125 202.081C57.8526 208.142 98.4432 188.127 134.618 203.179C171.742 218.626 196.403 261.301 235.295 272.524C267.411 281.791 302.222 271.995 334.968 275.513C376.804 280.008 416.391 299.398 457.377 308.755" stroke="white" stroke-width="0.25" stroke-miterlimit="10"/>
<path d="M19.5871 214.761C56.7622 221.067 94.8242 200.338 131.097 214.472C168.344 228.985 195.356 267.889 234.12 278.431C266.763 287.309 301.6 277.483 334.782 281.006C377.174 285.508 413.244 314.163 454.002 325.703" stroke="white" stroke-width="0.25" stroke-miterlimit="10"/>
<path d="M19.7521 229.005C56.2727 235.09 91.215 213.066 127.283 225.813C164.85 239.092 194.313 273.817 233.102 283.526C266.386 291.858 301.25 282.056 334.95 285.633C378.545 290.26 409.765 329.367 450.379 344.145" stroke="white" stroke-width="0.25" stroke-miterlimit="10"/>
<path d="M21.0741 245.187C56.69 250.398 88.1176 225.647 123.675 237.193C161.537 249.487 193.027 280.55 231.872 289.669C265.654 297.6 300.623 287.79 334.74 291.391C380 296.169 406.058 344.243 446.969 361.627" stroke="white" stroke-width="0.25" stroke-miterlimit="10"/>
<path d="M23.7545 263.648C57.3001 266.902 84.1028 239.009 117.712 247.802C157.192 258.132 190.271 289.056 230.087 298.47C265.063 306.738 301.17 295.899 336.455 300.373C381.295 306.06 403.558 358.408 444.249 375.485" stroke="white" stroke-width="0.25" stroke-miterlimit="10"/>
<path d="M51.0613 43.2773C56.2644 59.2528 66.4133 71.1804 62.3366 88.9344C58.249 106.738 39.3272 118.26 32.9717 135.838C18.5296 175.781 18.5555 224.24 24.3748 265.11" stroke="white" stroke-width="0.25" stroke-miterlimit="10"/>
<path d="M60.262 44.7209C65.2291 60.6327 75.7776 73.2493 71.7072 90.9175C67.5986 108.753 48.2385 119.604 41.8228 137.267C27.5428 176.585 27.7327 226.066 33.0672 266.326" stroke="white" stroke-width="0.25" stroke-miterlimit="10"/>
<path d="M69.625 44.9971C74.3451 60.903 85.5977 74.8024 81.3298 92.443C77.004 110.323 56.8203 119.686 50.2258 137.493C36.2248 175.303 36.5611 227.172 41.0344 265.964" stroke="white" stroke-width="0.25" stroke-miterlimit="10"/>
<path d="M79.1122 44.3324C83.8523 60.6972 97.9428 78.8719 89.6468 96.9385C81.987 113.619 65.1812 118.576 58.6305 136.823C45.3253 173.88 45.0351 226.144 48.4156 264.341" stroke="white" stroke-width="0.25" stroke-miterlimit="10"/>
<path d="M88.6889 42.9613C93.1264 59.2025 108.462 79.9897 99.5204 97.7068C91.1648 114.263 73.4017 116.876 66.4826 135.439C60.9907 150.172 61.8719 169.052 59.5064 184.654C55.4556 211.37 53.7733 234.657 55.3535 261.772" stroke="white" stroke-width="0.25" stroke-miterlimit="10"/>
<path d="M98.3411 41.1346C102.485 57.2659 119.131 80.9748 109.479 98.2762C100.333 114.671 81.5615 114.668 74.2084 133.599C68.4991 148.296 70.4383 167.72 68.2947 183.362C64.7373 209.312 61.4439 232.12 62.0342 258.566" stroke="white" stroke-width="0.25" stroke-miterlimit="10"/>
<path d="M108.024 39.0805C111.895 55.121 129.842 81.9121 119.477 98.7465C109.5 114.949 89.6892 112.205 81.8601 131.536C75.9101 146.228 79.0087 166.174 77.0551 181.872C73.9335 206.957 69.0498 229.463 68.5736 255.05" stroke="white" stroke-width="0.25" stroke-miterlimit="10"/>
<path d="M117.708 37.0266C121.325 53.0023 140.505 82.8742 129.477 99.2132C118.685 115.202 97.8263 109.731 89.5178 129.472C83.3303 144.176 87.5894 164.619 85.8183 180.378C83.0973 204.582 76.6854 226.928 75.1234 251.535" stroke="white" stroke-width="0.25" stroke-miterlimit="10"/>
<path d="M127.358 35.2087C130.744 51.1518 151.032 83.933 139.434 99.7837C127.893 115.554 106.01 107.5 97.252 127.641C90.8451 142.377 96.2074 163.266 94.6033 179.095C92.2317 202.491 84.4344 224.75 81.8201 248.342" stroke="white" stroke-width="0.25" stroke-miterlimit="10"/>
<path d="M136.944 33.8655C140.115 49.8095 161.355 85.1634 149.311 100.564C137.128 116.14 114.288 105.757 105.142 126.276C98.5495 141.063 104.895 162.328 103.439 178.228C101.357 200.975 92.397 223.147 88.8118 245.789" stroke="white" stroke-width="0.25" stroke-miterlimit="10"/>
<path d="M146.433 33.2245C149.4 49.1967 171.411 86.6338 159.065 101.65C146.371 117.091 122.715 104.731 113.257 125.597C106.526 140.45 113.672 162.006 112.345 177.976C110.491 200.289 100.673 222.329 96.2349 244.186" stroke="white" stroke-width="0.25" stroke-miterlimit="10"/>
<path d="M155.792 33.5265C158.56 49.5469 181.144 88.4292 168.657 103.153C155.602 118.549 131.352 104.658 121.677 125.845C114.864 140.767 122.57 162.526 121.351 178.553C119.67 200.665 109.373 222.552 104.237 243.857" stroke="white" stroke-width="0.25" stroke-miterlimit="10"/>
<path d="M164.991 35.0008C167.553 51.0833 190.496 90.6158 178.043 105.166C164.799 120.641 140.263 105.769 130.477 127.245C123.65 142.228 131.615 164.095 130.479 180.159C128.915 202.286 118.589 224.071 112.959 245.114" stroke="white" stroke-width="0.25" stroke-miterlimit="10"/>
<path d="M174.027 37.819C176.625 54.0945 198.694 92.1837 186.468 107.023C173.72 122.496 149.349 110.025 139.856 130.954C133.122 145.802 140.641 167.282 139.506 183.228C137.94 205.241 127.832 226.875 122.228 247.811" stroke="white" stroke-width="0.25" stroke-miterlimit="10"/>
<path d="M182.911 41.8044C185.431 58.5922 205.884 93.6702 194.137 109.238C182.17 125.101 158.362 116.314 149.429 136.875C142.978 151.721 149.718 172.257 148.514 188.133C146.875 209.741 137.233 230.882 131.768 251.47" stroke="white" stroke-width="0.25" stroke-miterlimit="10"/>
<path d="M191.672 46.7248C193.986 64.2816 212.177 95.1264 201.199 111.745C190.252 128.317 167.343 124.203 159.157 144.571C153.163 159.485 158.839 178.706 157.504 194.514C155.732 215.479 146.758 235.861 141.523 255.902" stroke="white" stroke-width="0.25" stroke-miterlimit="10"/>
<path d="M200.348 52.3442C202.286 70.7889 217.704 96.6796 207.808 114.466C198.041 132.018 176.363 133.2 169.002 153.597C163.579 168.626 168.145 186.275 166.481 202C164.343 222.189 156.393 241.491 151.437 260.912" stroke="white" stroke-width="0.25" stroke-miterlimit="10"/>
<path d="M208.987 58.4406C210.805 80.3292 223.785 100.656 211.521 121.242C202.015 137.197 184.601 144.298 178.173 163.355C173.806 176.305 177.076 192.607 175.808 206.22C173.879 226.949 166.465 246.386 161.479 266.316" stroke="white" stroke-width="0.25" stroke-miterlimit="10"/>
<path d="M217.585 64.7565C218.467 86.8175 228.148 103.419 217.963 124.741C209.434 142.6 194.08 154.085 188.326 174.072C184.601 187.013 186.393 201.624 184.851 214.97C182.592 234.523 176.108 252.964 171.543 271.909" stroke="white" stroke-width="0.25" stroke-miterlimit="10"/>
<path d="M226.198 71.0749C225.983 92.5686 232.476 107.024 224.406 128.241C216.854 148.097 203.768 163.607 198.493 184.792C191.051 214.678 188.641 247.054 181.612 277.498" stroke="white" stroke-width="0.25" stroke-miterlimit="10"/>
<path d="M234.856 77.1501C231.035 96.9175 237.269 110.962 230.98 131.625C224.343 153.433 213.622 172.493 208.604 195.027C202.191 223.827 197.288 253.857 191.612 282.891" stroke="white" stroke-width="0.25" stroke-miterlimit="10"/>
<path d="M243.584 82.768C239.458 99.9678 242.263 116.855 237.818 134.803C231.985 158.354 223.586 180.451 218.619 204.306C212.836 232.077 206.802 260.026 201.52 287.897" stroke="white" stroke-width="0.25" stroke-miterlimit="10"/>
<path d="M252.406 87.6882C248.27 103.47 248.425 121.493 245.054 137.663C239.855 162.605 233.555 187.164 228.474 212.142C223.025 238.929 216.317 265.43 211.284 292.319" stroke="white" stroke-width="0.25" stroke-miterlimit="10"/>
<path d="M261.395 91.6887C244.994 158.049 233.714 228.409 220.9 295.98" stroke="white" stroke-width="0.25" stroke-miterlimit="10"/>
<path d="M270.426 94.4785C256.969 162.612 243.544 230.585 230.099 298.659" stroke="white" stroke-width="0.25" stroke-miterlimit="10"/>
<path d="M279.675 95.7757C266.087 164.013 253.253 232.209 239.393 300.334" stroke="white" stroke-width="0.25" stroke-miterlimit="10"/>
<path d="M289.172 95.6048C275.514 164.152 263.164 232.81 248.994 301.196" stroke="white" stroke-width="0.25" stroke-miterlimit="10"/>
<path d="M298.869 94.2572C285.193 163.281 273.244 232.605 258.84 301.405" stroke="white" stroke-width="0.25" stroke-miterlimit="10"/>
<path d="M308.713 92.0322C295.295 161.698 283.459 231.821 268.872 301.128" stroke="white" stroke-width="0.25" stroke-miterlimit="10"/>
<path d="M318.654 89.2178C305.222 159.501 293.998 230.74 279.027 300.524" stroke="white" stroke-width="0.25" stroke-miterlimit="10"/>
<path d="M328.649 86.1084C315.21 157.029 304.417 229.466 289.242 299.756" stroke="white" stroke-width="0.25" stroke-miterlimit="10"/>
<path d="M338.645 82.999C325.191 154.52 314.841 228.256 299.456 298.988" stroke="white" stroke-width="0.25" stroke-miterlimit="10"/>
<path d="M348.602 80.1797C341.13 120.122 334.153 160.19 326.358 200.058C320.029 232.433 316.594 266.598 309.609 298.384" stroke="white" stroke-width="0.25" stroke-miterlimit="10"/>
<path d="M358.455 77.9463C351.064 117.631 344.03 157.397 336.294 197.004C332.395 216.963 328.06 236.82 324.215 256.793C321.577 270.5 322.625 284.698 319.637 298.104" stroke="white" stroke-width="0.25" stroke-miterlimit="10"/>
<path d="M368.158 76.5918C360.832 116.051 353.777 155.56 346.074 194.935C342.022 215.644 337.647 236.282 333.703 257.015C331.1 270.698 332.509 284.995 329.483 298.311" stroke="white" stroke-width="0.25" stroke-miterlimit="10"/>
<path d="M377.663 76.4102C370.382 115.687 363.329 154.996 355.643 194.18C351.473 215.442 347.083 236.661 343.054 257.956C340.477 271.573 342.158 285.973 339.082 299.167" stroke="white" stroke-width="0.25" stroke-miterlimit="10"/>
<path d="M386.923 77.6953C379.665 116.845 372.627 156.019 364.954 195.073C360.716 216.647 356.338 238.197 352.238 259.802C349.675 273.305 351.518 287.801 348.377 300.838" stroke="white" stroke-width="0.25" stroke-miterlimit="10"/>
<path d="M395.973 80.3008C388.695 119.563 381.121 158.628 373.262 197.712C368.979 219.012 365.542 240.496 361.505 261.851C358.841 275.946 360.125 290.161 357.221 303.936" stroke="white" stroke-width="0.25" stroke-miterlimit="10"/>
<path d="M404.91 83.7533C397.574 123.278 388.779 161.948 380.559 201.01C373.079 236.548 372.267 273.444 365.64 308.726" stroke="white" stroke-width="0.25" stroke-miterlimit="10"/>
<path d="M413.754 87.8879C408.863 114.135 405.768 141.733 399.154 167.507C395.896 180.209 390.125 191.182 387.242 204.069C379.164 240.174 380.254 278.508 373.71 314.874" stroke="white" stroke-width="0.25" stroke-miterlimit="10"/>
<path d="M422.521 92.5302C417.801 117.77 415.232 145.171 408.221 169.742C404.284 183.541 396.407 194.309 392.941 208.407C384.155 244.136 388.013 285.164 381.51 322.039" stroke="white" stroke-width="0.25" stroke-miterlimit="10"/>
<path d="M431.24 97.5068C426.702 121.649 424.507 148.692 417.249 172.001C412.555 187.073 401.995 197.404 398.175 213.04C393.348 232.798 398.974 254.76 397.141 274.919C395.49 293.068 391.966 311.884 389.116 329.885" stroke="white" stroke-width="0.25" stroke-miterlimit="10"/>
<path d="M439.929 102.657C435.574 125.688 433.631 152.211 426.251 174.28C420.79 190.615 407.148 200.561 403.182 217.828C398.78 236.987 407.254 257.768 406.177 277.175C405.075 297.044 399.929 318.475 396.623 338.076" stroke="white" stroke-width="0.25" stroke-miterlimit="10"/>
<path d="M448.613 107.808C444.433 129.767 442.654 155.657 435.247 176.559C429.075 193.97 412.028 203.838 408.19 222.614C404.277 241.753 416.117 260.316 415.203 279.431C414.158 301.231 407.924 324.833 404.123 346.266" stroke="white" stroke-width="0.25" stroke-miterlimit="10"/>
<path d="M457.3 112.782C453.115 134.596 451.348 161.803 442.361 181.753C434.989 198.117 417.658 208.634 414.256 227.222C410.601 247.186 424.813 264.651 424.024 284.854C423.151 307.209 415.745 332.14 411.681 354.119" stroke="white" stroke-width="0.25" stroke-miterlimit="10"/>
<path d="M466.034 117.431C462.009 138.285 460.388 165.392 451.178 184.119C443.054 200.635 423.278 212.203 420.103 231.462C416.802 251.488 433.361 266.87 433.148 287.018C432.903 310.488 423.807 338.238 419.431 361.294" stroke="white" stroke-width="0.25" stroke-miterlimit="10"/>
<path d="M474.843 121.58C470.901 141.915 469.255 168.306 460.084 186.421C451.565 203.249 429.528 215.419 426.566 235.308C423.557 255.512 442.026 268.947 442.278 289.172C442.579 313.416 432.052 343.634 427.451 367.459" stroke="white" stroke-width="0.25" stroke-miterlimit="10"/>
<path d="M483.756 125.058C479.877 145.018 478.206 170.933 469.115 188.638C460.349 205.707 436.657 218.29 433.853 238.63C431.036 259.062 450.891 270.919 451.42 291.316C452.062 316.07 440.58 347.932 435.841 372.283" stroke="white" stroke-width="0.25" stroke-miterlimit="10"/>
<path d="M492.798 127.695C488.965 147.429 487.28 173.244 478.298 190.745C469.428 208.027 444.929 220.643 442.164 241.287C439.397 261.951 460.029 272.803 460.577 293.435C461.243 318.506 449.479 350.743 444.687 375.418" stroke="white" stroke-width="0.25" stroke-miterlimit="10"/>
</svg>
