<svg width="34" height="34" viewBox="0 0 34 34" fill="none" xmlns="http://www.w3.org/2000/svg">
<circle cx="17" cy="16" r="16" fill="white"/>
<path fill-rule="evenodd" clip-rule="evenodd" d="M2.924 25.2286L0 34L9.52 31.4951C11.842 32.718 14.4858 33.4138 17.2931 33.4138C26.52 33.4138 34 25.9338 34 16.7069C34 7.48 26.52 0 17.2931 0C8.06621 0 0.586207 7.48 0.586207 16.7069C0.586207 19.8208 1.44031 22.7331 2.924 25.2286ZM24.3358 19.1421C24.3358 19.1421 27.1807 20.8092 27.9521 22.2671C28.2804 22.8868 28.1661 23.6482 27.6702 24.1453L26.6396 25.1759C23.3703 28.4452 19.6796 26.8354 16.4103 23.5662L13.4224 20.5783L10.4345 17.5904C7.16524 14.3211 5.55552 10.6303 8.8248 7.36107L9.85535 6.33052C10.3513 5.83459 11.1128 5.71969 11.733 6.04797C13.1909 6.81941 14.858 9.66428 14.858 9.66428C15.225 10.3079 15.266 11.0841 14.6118 11.4516C14.6118 11.4516 13.5033 12.3761 13.3439 12.6111C12.6164 13.6851 12.6445 14.6799 13.6487 15.684L15.9824 18.0177L18.3161 20.3514C19.3202 21.3556 20.315 21.3837 21.389 20.6562C21.624 20.4968 22.5485 19.3883 22.5485 19.3883C22.9155 18.7341 23.6922 18.7751 24.3358 19.1421Z" fill="black"/>
</svg>
