<svg width="131" height="160" viewBox="0 0 131 160" fill="none" xmlns="http://www.w3.org/2000/svg">
<path d="M64.5253 116.027L42.0033 78.7248" stroke="white" stroke-opacity="0.42" stroke-width="2" stroke-miterlimit="10"/>
<path d="M86.2806 0.999512L52.061 25.5487" stroke="white" stroke-opacity="0.42" stroke-width="2" stroke-miterlimit="10"/>
<path d="M97.2579 63.2397L57.1361 54.5968" stroke="white" stroke-opacity="0.42" stroke-width="2" stroke-miterlimit="10"/>
<path d="M15.6944 84.26L7.09064 127.993" stroke="white" stroke-opacity="0.42" stroke-width="2" stroke-miterlimit="10"/>
<path d="M85.2557 93.8384L51.588 68.6574" stroke="white" stroke-opacity="0.42" stroke-width="2" stroke-miterlimit="10"/>
<path d="M2.68786 78.211L-20.875 114.909" stroke="white" stroke-opacity="0.42" stroke-width="2" stroke-miterlimit="10"/>
<path d="M97.606 31.6924L57.2974 39.9653" stroke="white" stroke-opacity="0.42" stroke-width="2" stroke-miterlimit="10"/>
<path d="M29.0614 84.4343L36.0857 128.373" stroke="white" stroke-opacity="0.42" stroke-width="2" stroke-miterlimit="10"/>
<path d="M76.7328 105.062L47.6474 73.7704" stroke="white" stroke-opacity="0.42" stroke-width="2" stroke-miterlimit="10"/>
<path d="M-2.09485 73.9165L-31.0785 105.619" stroke="white" stroke-opacity="0.42" stroke-width="2" stroke-miterlimit="10"/>
<path d="M98.8275 46.1357L57.8615 46.6811" stroke="white" stroke-opacity="0.42" stroke-width="2" stroke-miterlimit="10"/>
<path d="M22.947 85.0498L22.79 129.703" stroke="white" stroke-opacity="0.42" stroke-width="2" stroke-miterlimit="10"/>
<path d="M92.8509 78.728L55.0987 61.7313" stroke="white" stroke-opacity="0.42" stroke-width="2" stroke-miterlimit="10"/>
<path d="M9.1165 82.0392L-7.08673 123.19" stroke="white" stroke-opacity="0.42" stroke-width="2" stroke-miterlimit="10"/>
<path d="M93.2018 15.2417L55.2612 32.2717" stroke="white" stroke-opacity="0.42" stroke-width="2" stroke-miterlimit="10"/>
<path d="M36.0095 82.214L51.2866 123.57" stroke="white" stroke-opacity="0.42" stroke-width="2" stroke-miterlimit="10"/>
</svg>
