<svg width="213" height="233" viewBox="0 0 213 233" fill="none" xmlns="http://www.w3.org/2000/svg">
<mask id="mask0_116_2336" style="mask-type:luminance" maskUnits="userSpaceOnUse" x="-1" y="0" width="214" height="233">
<path d="M106.5 232.178C165.318 232.178 213 180.203 213 116.089C213 51.9755 165.318 0.000976562 106.5 0.000976562C47.6815 0.000976562 -0.00012207 51.9755 -0.00012207 116.089C-0.00012207 180.203 47.6815 232.178 106.5 232.178Z" fill="white"/>
</mask>
<g mask="url(#mask0_116_2336)">
<path d="M-28.0415 43.8135L248.683 -48.2124" stroke="white" stroke-width="0.3" stroke-miterlimit="10"/>
</g>
<mask id="mask1_116_2336" style="mask-type:luminance" maskUnits="userSpaceOnUse" x="-1" y="0" width="214" height="233">
<path d="M106.5 232.178C165.318 232.178 213 180.203 213 116.089C213 51.9755 165.318 0.000976562 106.5 0.000976562C47.6815 0.000976562 -0.00012207 51.9755 -0.00012207 116.089C-0.00012207 180.203 47.6815 232.178 106.5 232.178Z" fill="white"/>
</mask>
<g mask="url(#mask1_116_2336)">
<path d="M-28.0415 53.9219L248.683 -38.104" stroke="white" stroke-width="0.3" stroke-miterlimit="10"/>
</g>
<mask id="mask2_116_2336" style="mask-type:luminance" maskUnits="userSpaceOnUse" x="-1" y="0" width="214" height="233">
<path d="M106.5 232.178C165.318 232.178 213 180.203 213 116.089C213 51.9755 165.318 0.000976562 106.5 0.000976562C47.6815 0.000976562 -0.00012207 51.9755 -0.00012207 116.089C-0.00012207 180.203 47.6815 232.178 106.5 232.178Z" fill="white"/>
</mask>
<g mask="url(#mask2_116_2336)">
<path d="M-28.0415 64.0303L248.683 -27.9956" stroke="white" stroke-width="0.3" stroke-miterlimit="10"/>
</g>
<mask id="mask3_116_2336" style="mask-type:luminance" maskUnits="userSpaceOnUse" x="-1" y="0" width="214" height="233">
<path d="M106.5 232.178C165.318 232.178 213 180.203 213 116.089C213 51.9755 165.318 0.000976562 106.5 0.000976562C47.6815 0.000976562 -0.00012207 51.9755 -0.00012207 116.089C-0.00012207 180.203 47.6815 232.178 106.5 232.178Z" fill="white"/>
</mask>
<g mask="url(#mask3_116_2336)">
<path d="M-28.0415 74.1397L248.683 -17.8862" stroke="white" stroke-width="0.3" stroke-miterlimit="10"/>
</g>
<mask id="mask4_116_2336" style="mask-type:luminance" maskUnits="userSpaceOnUse" x="-1" y="0" width="214" height="233">
<path d="M106.5 232.178C165.318 232.178 213 180.203 213 116.089C213 51.9755 165.318 0.000976562 106.5 0.000976562C47.6815 0.000976562 -0.00012207 51.9755 -0.00012207 116.089C-0.00012207 180.203 47.6815 232.178 106.5 232.178Z" fill="white"/>
</mask>
<g mask="url(#mask4_116_2336)">
<path d="M-28.0415 84.2486L248.683 -7.77734" stroke="white" stroke-width="0.3" stroke-miterlimit="10"/>
</g>
<mask id="mask5_116_2336" style="mask-type:luminance" maskUnits="userSpaceOnUse" x="-1" y="0" width="214" height="233">
<path d="M106.5 232.178C165.318 232.178 213 180.203 213 116.089C213 51.9755 165.318 0.000976562 106.5 0.000976562C47.6815 0.000976562 -0.00012207 51.9755 -0.00012207 116.089C-0.00012207 180.203 47.6815 232.178 106.5 232.178Z" fill="white"/>
</mask>
<g mask="url(#mask5_116_2336)">
<path d="M-28.0415 94.357L248.683 2.33105" stroke="white" stroke-width="0.3" stroke-miterlimit="10"/>
</g>
<mask id="mask6_116_2336" style="mask-type:luminance" maskUnits="userSpaceOnUse" x="-1" y="0" width="214" height="233">
<path d="M106.5 232.178C165.318 232.178 213 180.203 213 116.089C213 51.9755 165.318 0.000976562 106.5 0.000976562C47.6815 0.000976562 -0.00012207 51.9755 -0.00012207 116.089C-0.00012207 180.203 47.6815 232.178 106.5 232.178Z" fill="white"/>
</mask>
<g mask="url(#mask6_116_2336)">
<path d="M-28.0415 104.464L248.683 12.4385" stroke="white" stroke-width="0.3" stroke-miterlimit="10"/>
</g>
<mask id="mask7_116_2336" style="mask-type:luminance" maskUnits="userSpaceOnUse" x="-1" y="0" width="214" height="233">
<path d="M106.5 232.178C165.318 232.178 213 180.203 213 116.089C213 51.9755 165.318 0.000976562 106.5 0.000976562C47.6815 0.000976562 -0.00012207 51.9755 -0.00012207 116.089C-0.00012207 180.203 47.6815 232.178 106.5 232.178Z" fill="white"/>
</mask>
<g mask="url(#mask7_116_2336)">
<path d="M-28.0415 114.574L248.683 22.5483" stroke="white" stroke-width="0.3" stroke-miterlimit="10"/>
</g>
<mask id="mask8_116_2336" style="mask-type:luminance" maskUnits="userSpaceOnUse" x="-1" y="0" width="214" height="233">
<path d="M106.5 232.178C165.318 232.178 213 180.203 213 116.089C213 51.9755 165.318 0.000976562 106.5 0.000976562C47.6815 0.000976562 -0.00012207 51.9755 -0.00012207 116.089C-0.00012207 180.203 47.6815 232.178 106.5 232.178Z" fill="white"/>
</mask>
<g mask="url(#mask8_116_2336)">
<path d="M-28.0415 124.684L248.683 32.6577" stroke="white" stroke-width="0.3" stroke-miterlimit="10"/>
</g>
<mask id="mask9_116_2336" style="mask-type:luminance" maskUnits="userSpaceOnUse" x="-1" y="0" width="214" height="233">
<path d="M106.5 232.178C165.318 232.178 213 180.203 213 116.089C213 51.9755 165.318 0.000976562 106.5 0.000976562C47.6815 0.000976562 -0.00012207 51.9755 -0.00012207 116.089C-0.00012207 180.203 47.6815 232.178 106.5 232.178Z" fill="white"/>
</mask>
<g mask="url(#mask9_116_2336)">
<path d="M-28.0415 134.792L248.683 42.7661" stroke="white" stroke-width="0.3" stroke-miterlimit="10"/>
</g>
<mask id="mask10_116_2336" style="mask-type:luminance" maskUnits="userSpaceOnUse" x="-1" y="0" width="214" height="233">
<path d="M106.5 232.178C165.318 232.178 213 180.203 213 116.089C213 51.9755 165.318 0.000976562 106.5 0.000976562C47.6815 0.000976562 -0.00012207 51.9755 -0.00012207 116.089C-0.00012207 180.203 47.6815 232.178 106.5 232.178Z" fill="white"/>
</mask>
<g mask="url(#mask10_116_2336)">
<path d="M-28.0415 144.9L248.683 52.876" stroke="white" stroke-width="0.3" stroke-miterlimit="10"/>
</g>
<mask id="mask11_116_2336" style="mask-type:luminance" maskUnits="userSpaceOnUse" x="-1" y="0" width="214" height="233">
<path d="M106.5 232.178C165.318 232.178 213 180.203 213 116.089C213 51.9755 165.318 0.000976562 106.5 0.000976562C47.6815 0.000976562 -0.00012207 51.9755 -0.00012207 116.089C-0.00012207 180.203 47.6815 232.178 106.5 232.178Z" fill="white"/>
</mask>
<g mask="url(#mask11_116_2336)">
<path d="M-28.0415 155.009L248.683 62.9834" stroke="white" stroke-width="0.3" stroke-miterlimit="10"/>
</g>
<mask id="mask12_116_2336" style="mask-type:luminance" maskUnits="userSpaceOnUse" x="-1" y="0" width="214" height="233">
<path d="M106.5 232.178C165.318 232.178 213 180.203 213 116.089C213 51.9755 165.318 0.000976562 106.5 0.000976562C47.6815 0.000976562 -0.00012207 51.9755 -0.00012207 116.089C-0.00012207 180.203 47.6815 232.178 106.5 232.178Z" fill="white"/>
</mask>
<g mask="url(#mask12_116_2336)">
<path d="M-28.0415 165.118L248.683 73.0923" stroke="white" stroke-width="0.3" stroke-miterlimit="10"/>
</g>
<mask id="mask13_116_2336" style="mask-type:luminance" maskUnits="userSpaceOnUse" x="-1" y="0" width="214" height="233">
<path d="M106.5 232.178C165.318 232.178 213 180.203 213 116.089C213 51.9755 165.318 0.000976562 106.5 0.000976562C47.6815 0.000976562 -0.00012207 51.9755 -0.00012207 116.089C-0.00012207 180.203 47.6815 232.178 106.5 232.178Z" fill="white"/>
</mask>
<g mask="url(#mask13_116_2336)">
<path d="M-28.0415 175.227L248.683 83.2007" stroke="white" stroke-width="0.3" stroke-miterlimit="10"/>
</g>
<mask id="mask14_116_2336" style="mask-type:luminance" maskUnits="userSpaceOnUse" x="-1" y="0" width="214" height="233">
<path d="M106.5 232.178C165.318 232.178 213 180.203 213 116.089C213 51.9755 165.318 0.000976562 106.5 0.000976562C47.6815 0.000976562 -0.00012207 51.9755 -0.00012207 116.089C-0.00012207 180.203 47.6815 232.178 106.5 232.178Z" fill="white"/>
</mask>
<g mask="url(#mask14_116_2336)">
<path d="M-28.0415 185.337L248.683 93.3105" stroke="white" stroke-width="0.3" stroke-miterlimit="10"/>
</g>
<mask id="mask15_116_2336" style="mask-type:luminance" maskUnits="userSpaceOnUse" x="-1" y="0" width="214" height="233">
<path d="M106.5 232.178C165.318 232.178 213 180.203 213 116.089C213 51.9755 165.318 0.000976562 106.5 0.000976562C47.6815 0.000976562 -0.00012207 51.9755 -0.00012207 116.089C-0.00012207 180.203 47.6815 232.178 106.5 232.178Z" fill="white"/>
</mask>
<g mask="url(#mask15_116_2336)">
<path d="M-28.0415 195.446L248.683 103.42" stroke="white" stroke-width="0.3" stroke-miterlimit="10"/>
</g>
<mask id="mask16_116_2336" style="mask-type:luminance" maskUnits="userSpaceOnUse" x="-1" y="0" width="214" height="233">
<path d="M106.5 232.178C165.318 232.178 213 180.203 213 116.089C213 51.9755 165.318 0.000976562 106.5 0.000976562C47.6815 0.000976562 -0.00012207 51.9755 -0.00012207 116.089C-0.00012207 180.203 47.6815 232.178 106.5 232.178Z" fill="white"/>
</mask>
<g mask="url(#mask16_116_2336)">
<path d="M-28.0415 205.553L248.683 113.527" stroke="white" stroke-width="0.3" stroke-miterlimit="10"/>
</g>
<mask id="mask17_116_2336" style="mask-type:luminance" maskUnits="userSpaceOnUse" x="-1" y="0" width="214" height="233">
<path d="M106.5 232.178C165.318 232.178 213 180.203 213 116.089C213 51.9755 165.318 0.000976562 106.5 0.000976562C47.6815 0.000976562 -0.00012207 51.9755 -0.00012207 116.089C-0.00012207 180.203 47.6815 232.178 106.5 232.178Z" fill="white"/>
</mask>
<g mask="url(#mask17_116_2336)">
<path d="M-28.0415 215.663L248.683 123.636" stroke="white" stroke-width="0.3" stroke-miterlimit="10"/>
</g>
<mask id="mask18_116_2336" style="mask-type:luminance" maskUnits="userSpaceOnUse" x="-1" y="0" width="214" height="233">
<path d="M106.5 232.178C165.318 232.178 213 180.203 213 116.089C213 51.9755 165.318 0.000976562 106.5 0.000976562C47.6815 0.000976562 -0.00012207 51.9755 -0.00012207 116.089C-0.00012207 180.203 47.6815 232.178 106.5 232.178Z" fill="white"/>
</mask>
<g mask="url(#mask18_116_2336)">
<path d="M-28.0415 225.771L248.683 133.745" stroke="white" stroke-width="0.3" stroke-miterlimit="10"/>
</g>
<mask id="mask19_116_2336" style="mask-type:luminance" maskUnits="userSpaceOnUse" x="-1" y="0" width="214" height="233">
<path d="M106.5 232.178C165.318 232.178 213 180.203 213 116.089C213 51.9755 165.318 0.000976562 106.5 0.000976562C47.6815 0.000976562 -0.00012207 51.9755 -0.00012207 116.089C-0.00012207 180.203 47.6815 232.178 106.5 232.178Z" fill="white"/>
</mask>
<g mask="url(#mask19_116_2336)">
<path d="M-28.0415 235.88L248.683 143.854" stroke="white" stroke-width="0.3" stroke-miterlimit="10"/>
</g>
<mask id="mask20_116_2336" style="mask-type:luminance" maskUnits="userSpaceOnUse" x="-1" y="0" width="214" height="233">
<path d="M106.5 232.178C165.318 232.178 213 180.203 213 116.089C213 51.9755 165.318 0.000976562 106.5 0.000976562C47.6815 0.000976562 -0.00012207 51.9755 -0.00012207 116.089C-0.00012207 180.203 47.6815 232.178 106.5 232.178Z" fill="white"/>
</mask>
<g mask="url(#mask20_116_2336)">
<path d="M-28.0415 245.988L248.683 153.962" stroke="white" stroke-width="0.3" stroke-miterlimit="10"/>
</g>
<mask id="mask21_116_2336" style="mask-type:luminance" maskUnits="userSpaceOnUse" x="-1" y="0" width="214" height="233">
<path d="M106.5 232.178C165.318 232.178 213 180.203 213 116.089C213 51.9755 165.318 0.000976562 106.5 0.000976562C47.6815 0.000976562 -0.00012207 51.9755 -0.00012207 116.089C-0.00012207 180.203 47.6815 232.178 106.5 232.178Z" fill="white"/>
</mask>
<g mask="url(#mask21_116_2336)">
<path d="M-28.0415 256.098L248.683 164.072" stroke="white" stroke-width="0.3" stroke-miterlimit="10"/>
</g>
<mask id="mask22_116_2336" style="mask-type:luminance" maskUnits="userSpaceOnUse" x="-1" y="0" width="214" height="233">
<path d="M106.5 232.178C165.318 232.178 213 180.203 213 116.089C213 51.9755 165.318 0.000976562 106.5 0.000976562C47.6815 0.000976562 -0.00012207 51.9755 -0.00012207 116.089C-0.00012207 180.203 47.6815 232.178 106.5 232.178Z" fill="white"/>
</mask>
<g mask="url(#mask22_116_2336)">
<path d="M-28.0415 266.206L248.683 174.18" stroke="white" stroke-width="0.3" stroke-miterlimit="10"/>
</g>
<mask id="mask23_116_2336" style="mask-type:luminance" maskUnits="userSpaceOnUse" x="-1" y="0" width="214" height="233">
<path d="M106.5 232.178C165.318 232.178 213 180.203 213 116.089C213 51.9755 165.318 0.000976562 106.5 0.000976562C47.6815 0.000976562 -0.00012207 51.9755 -0.00012207 116.089C-0.00012207 180.203 47.6815 232.178 106.5 232.178Z" fill="white"/>
</mask>
<g mask="url(#mask23_116_2336)">
<path d="M-28.0415 276.315L248.683 184.289" stroke="white" stroke-width="0.4" stroke-miterlimit="10"/>
</g>
</svg>
