<?xml version="1.0" standalone="no"?>
<!DOCTYPE svg PUBLIC "-//W3C//DTD SVG 20010904//EN"
 "http://www.w3.org/TR/2001/REC-SVG-20010904/DTD/svg10.dtd">
<svg version="1.0" xmlns="http://www.w3.org/2000/svg"
 width="35.000000pt" height="35.000000pt" viewBox="0 0 35.000000 35.000000"
 preserveAspectRatio="xMidYMid meet">

<g transform="translate(0.000000,35.000000) scale(0.100000,-0.100000)"
fill="#000000" stroke="none">
<path d="M98 330 c-103 -56 -129 -183 -55 -267 118 -135 332 -34 304 144 -18
110 -152 176 -249 123z m160 -74 c12 -12 17 -34 17 -81 0 -86 -14 -100 -100
-100 -78 0 -96 14 -102 82 -6 58 9 100 39 113 35 15 126 6 146 -14z"/>
<path d="M106 244 c-22 -21 -22 -117 0 -138 21 -22 117 -22 138 0 22 21 22
117 0 138 -21 22 -117 22 -138 0z m134 -14 c0 -5 -4 -10 -10 -10 -5 0 -10 5
-10 10 0 6 5 10 10 10 6 0 10 -4 10 -10z m-30 -20 c11 -11 20 -27 20 -35 0 -8
-9 -24 -20 -35 -11 -11 -27 -20 -35 -20 -19 0 -55 36 -55 55 0 8 9 24 20 35
11 11 27 20 35 20 8 0 24 -9 35 -20z"/>
<path d="M150 196 c-27 -33 18 -72 48 -42 13 13 14 20 6 34 -15 23 -38 26 -54
8z"/>
</g>
</svg>
