<svg width="30" height="30" viewBox="0 0 30 30" fill="none" xmlns="http://www.w3.org/2000/svg">
<path d="M14.2089 2.0625C11.5078 2.19727 8.83589 3.23438 6.65034 4.99805C6.01753 5.50781 4.98628 6.58594 4.47651 7.26562C2.23237 10.2715 1.42964 13.8281 2.17378 17.5195C3.11128 22.1719 6.11128 25.6582 10.4765 27.1523C11.9824 27.668 13.3476 27.8906 14.9999 27.8906C21.3339 27.8906 26.4023 23.9121 27.7382 17.9062C28.1132 16.2305 28.2011 14.5137 27.9902 13.1309C27.416 9.44531 25.3359 6.22266 22.207 4.16016C21.5683 3.74414 20.2382 3.07617 19.5117 2.80664C17.9003 2.2207 16.0957 1.96289 14.2089 2.0625ZM16.957 3.1875C22.3125 4.03125 26.1796 7.9043 26.9765 13.2188C27.1347 14.2559 27.1406 14.373 27.1347 15.2109C27.1171 19.916 24.0937 24.2988 19.6171 26.1094C17.4199 26.9941 15.082 27.2285 12.7148 26.7949C7.12495 25.7754 2.88276 20.7832 2.85932 15.2051C2.85346 12.4922 3.74995 9.75 5.33198 7.64648C7.14839 5.23828 10.1484 3.54492 13.2714 3.16992C13.5644 3.13477 13.8808 3.09375 13.9746 3.08203C14.3554 3.0293 16.4062 3.10547 16.957 3.1875Z" fill="#A2A2A2"/>
<path d="M17.5722 10.1309C17.3905 10.3184 17.3671 10.4238 17.4667 10.623C17.5077 10.6934 18.3925 11.6016 19.4472 12.6387L21.3573 14.5254H14.3202L7.28312 14.5312L7.16007 14.666C6.98429 14.8535 6.99015 15.1758 7.16593 15.3398L7.3007 15.4688L14.3319 15.4746H21.3573L19.4472 17.3613C18.3984 18.3984 17.5077 19.3066 17.4667 19.377C17.3671 19.5645 17.3847 19.6582 17.5546 19.8574C17.6718 19.998 17.7538 20.0391 17.9179 20.0391C18.1171 20.0391 18.2577 19.9102 20.5487 17.625C22.8339 15.3457 22.9687 15.1992 22.9687 15C22.9687 14.8008 22.8339 14.6543 20.5487 12.375C18.3515 10.1836 18.1054 9.96094 17.9355 9.96094C17.8007 9.96094 17.6952 10.0137 17.5722 10.1309Z" fill="#A2A2A2"/>
</svg>
