<svg width="200" height="200" viewBox="0 0 200 200" fill="none" xmlns="http://www.w3.org/2000/svg">
<path d="M12.528 100.048L13.088 140.192L170.784 194.768L171.568 140.464C164.832 135.664 159.024 132.816 154.912 131.088C149.728 128.912 143.376 126.256 135.888 126.448C133.456 126.512 129.712 126.912 123.776 129.552C113.024 134.336 109.632 140.096 104.512 143.424C99.328 146.8 90.656 148.848 75.584 142.176C71.488 136.8 66.256 130.656 59.952 124.752C55.12 120.224 50.672 116.816 46.88 114.24C42.192 110.672 35.984 106.624 28.72 103.744C22.144 101.136 16.624 100.256 12.512 100.032L12.528 100.048Z" fill="#FC0000"/>
<path d="M45.904 74.8C45.984 84.096 40.672 90.448 34.208 89.04C27.92 87.68 22.864 79.456 22.736 70.624C22.624 61.76 27.52 55.264 33.84 56.176C40.336 57.104 45.824 65.472 45.904 74.8Z" fill="#FC0000"/>
<path d="M170.784 197.168C170.512 197.168 170.256 197.12 170 197.04L12.288 142.464C11.328 142.128 10.688 141.232 10.672 140.224L9.13599 28.88C9.13599 28.192 9.42399 27.52 9.93599 27.056C10.448 26.592 11.136 26.384 11.824 26.464L173.2 45.936C174.416 46.08 175.328 47.12 175.312 48.352L173.184 194.8C173.184 195.568 172.784 196.288 172.16 196.736C171.744 197.024 171.264 197.168 170.784 197.168ZM15.456 138.48L168.432 191.424L170.48 50.448L13.968 31.568L15.456 138.48Z" fill="black"/>
<path d="M92.944 170.24C92.112 170.24 91.296 169.808 90.848 169.024C83.536 156.064 75.28 144.592 66.32 134.88C43.728 110.384 22.688 104.032 12.16 102.416C10.848 102.224 9.952 100.992 10.144 99.6801C10.352 98.3681 11.568 97.4721 12.88 97.6641C24.032 99.3761 46.256 106.048 69.856 131.6C79.056 141.568 87.52 153.36 95.024 166.64C95.68 167.792 95.264 169.264 94.112 169.904C93.744 170.112 93.328 170.208 92.928 170.208L92.944 170.24Z" fill="black"/>
<path d="M91.904 148.352C86.384 148.352 80.64 147.008 74.736 144.336C73.536 143.792 72.992 142.368 73.536 141.152C74.08 139.952 75.504 139.408 76.704 139.952C83.44 142.992 89.872 144.112 95.856 143.264C103.456 142.176 107.952 138.32 112.704 134.24C117.12 130.448 121.696 126.512 128.784 124.848C140.48 122.096 155.328 126.672 172.896 138.48C174 139.216 174.288 140.704 173.552 141.808C172.816 142.912 171.328 143.2 170.224 142.464C153.792 131.44 140.224 127.088 129.888 129.52C123.936 130.928 120 134.304 115.84 137.888C110.768 142.24 105.536 146.752 96.544 148.032C95.024 148.256 93.472 148.352 91.904 148.352Z" fill="black"/>
<path d="M120.864 133.28C119.888 133.28 118.96 132.672 118.608 131.696C111.296 111.648 96.096 97.152 80.8 95.6C68.4 94.336 57.984 102.208 53.6 116.144C53.2 117.408 51.856 118.112 50.592 117.712C49.328 117.312 48.624 115.968 49.024 114.704C54.064 98.72 66.72 89.344 81.296 90.832C98.384 92.56 115.2 108.336 123.136 130.064C123.584 131.312 122.944 132.688 121.712 133.136C121.44 133.232 121.168 133.28 120.896 133.28H120.864Z" fill="black"/>
<path d="M35.6 125.488C34.288 125.488 33.216 124.432 33.2 123.12L32.72 78.9601C32.72 77.6321 33.776 76.5441 35.088 76.5281C36.352 76.5281 37.504 77.5841 37.52 78.8961L38 123.056C38 124.384 36.944 125.472 35.632 125.488H35.6Z" fill="black"/>
<path d="M35.12 81.328C34.592 81.328 34.064 81.152 33.616 80.8C32.576 79.968 32.416 78.464 33.248 77.424L36.992 72.784C37.824 71.744 39.328 71.584 40.368 72.416C41.408 73.248 41.568 74.752 40.736 75.792L36.992 80.432C36.512 81.024 35.824 81.328 35.12 81.328Z" fill="black"/>
<path d="M35.12 81.328C34.272 81.328 33.456 80.88 33.024 80.096L27.248 69.68C26.608 68.528 27.024 67.056 28.176 66.416C29.328 65.776 30.8 66.192 31.44 67.344L37.216 77.76C37.856 78.912 37.44 80.384 36.288 81.024C35.92 81.232 35.52 81.328 35.12 81.328Z" fill="black"/>
<path d="M36.656 92.5279C35.872 92.5279 35.072 92.4479 34.272 92.2719C26.624 90.5919 20.512 81.1039 20.384 70.6559C20.304 64.4159 22.336 59.0079 25.984 55.8079C28.464 53.6319 31.568 52.6719 34.736 53.1199C42.768 54.2559 49.376 64.0799 49.472 75.0079C49.536 81.4559 47.36 86.9439 43.52 90.0479C41.504 91.6799 39.12 92.5439 36.656 92.5439V92.5279ZM33.184 57.7279C31.712 57.7279 30.336 58.2719 29.104 59.3599C26.544 61.6159 25.056 65.8079 25.12 70.5919C25.232 78.7999 29.792 86.4479 35.296 87.6479C37.216 88.0799 38.976 87.6479 40.544 86.3679C43.216 84.1919 44.784 79.9679 44.736 75.0399C44.656 66.4959 39.776 58.6079 34.064 57.7919C33.76 57.7439 33.472 57.7279 33.168 57.7279H33.184Z" fill="black"/>
<path d="M149.488 89.6479C149.36 89.6479 149.216 89.6479 149.088 89.6159L116.704 84.1599C115.872 84.0159 115.168 83.4559 114.864 82.6719C114 80.4959 113.584 78.2079 113.584 75.8719C113.6 71.4399 115.296 67.4239 118.24 64.8639C120.768 62.6719 124 61.6959 127.344 62.1439C129.072 62.3679 130.48 62.9439 131.36 63.3759C134.464 64.9119 136.592 67.4399 137.888 69.4399C138.24 69.3919 138.592 69.3599 138.944 69.3439C139.056 69.3439 139.952 69.3119 140.88 69.4399C147.28 70.3519 152.432 76.9119 152.352 84.0479C152.352 85.3919 152.144 86.7039 151.76 87.9519C151.44 88.9759 150.496 89.6479 149.472 89.6479H149.488ZM118.928 79.6639L147.568 84.4799C147.568 84.3199 147.568 84.1599 147.584 83.9999C147.632 79.2639 144.272 74.7839 140.224 74.1919C139.808 74.1279 139.312 74.1439 139.152 74.1439C138.608 74.1599 138.08 74.2719 137.584 74.4639C136.448 74.8959 135.184 74.3999 134.624 73.3279C133.84 71.8239 132.096 69.0879 129.264 67.6959C128.816 67.4719 127.872 67.0719 126.736 66.9279C124.752 66.6559 122.912 67.2159 121.424 68.5119C119.52 70.1759 118.432 72.8639 118.416 75.9199C118.416 77.1999 118.592 78.4639 118.928 79.6799V79.6639Z" fill="black"/>
<path d="M11.536 31.2639C10.512 31.2639 9.55202 30.5919 9.24802 29.5679C8.86402 28.3039 9.56802 26.9599 10.848 26.5759L35.424 19.0719C36.688 18.6879 38.032 19.3919 38.416 20.6719C38.8 21.9359 38.096 23.2799 36.816 23.6639L12.24 31.1679C12 31.2319 11.776 31.2799 11.536 31.2799V31.2639Z" fill="black"/>
<path d="M174.032 50.416C173.136 50.416 172.288 49.92 171.872 49.072C171.296 47.888 171.792 46.448 172.976 45.856L184.4 40.288C185.584 39.712 187.024 40.208 187.6 41.392C188.176 42.576 187.68 44.016 186.496 44.608L175.072 50.176C174.736 50.336 174.384 50.416 174.016 50.416H174.032Z" fill="black"/>
<path d="M171.568 197.168C170.688 197.168 169.84 196.688 169.424 195.84C168.832 194.656 169.312 193.216 170.496 192.624L185.12 185.264C186.304 184.672 187.744 185.152 188.336 186.336C188.928 187.52 188.448 188.96 187.264 189.552L172.64 196.912C172.288 197.088 171.92 197.168 171.568 197.168Z" fill="black"/>
<path d="M188.464 41.0079C188.368 41.0079 188.288 41.0079 188.192 41.0079L35.84 23.7439C34.528 23.5999 33.584 22.3999 33.728 21.0879C33.872 19.7759 35.072 18.8159 36.384 18.9759L188.736 36.2239C190.048 36.3679 191.008 37.5679 190.848 38.8799C190.704 40.1119 189.664 41.0079 188.464 41.0079Z" fill="black"/>
<path d="M186.192 189.824H186.16C184.832 189.808 183.776 188.72 183.792 187.392L186.064 38.5921C186.08 37.2641 187.184 36.2721 188.496 36.2241C189.824 36.2401 190.88 37.3281 190.864 38.6561L188.592 187.456C188.576 188.768 187.504 189.824 186.192 189.824Z" fill="black"/>
<path d="M189.056 39.2801C188.608 39.2801 188.256 38.9281 188.256 38.4801V7.92012C188.256 7.47212 188.608 7.12012 189.056 7.12012C189.504 7.12012 189.856 7.47212 189.856 7.92012V38.4801C189.856 38.9281 189.504 39.2801 189.056 39.2801Z" fill="black"/>
<path d="M173.008 46.9601C172.56 46.9601 172.208 46.6081 172.208 46.1601V15.5681C172.208 15.1201 172.56 14.7681 173.008 14.7681C173.456 14.7681 173.808 15.1201 173.808 15.5681V46.1601C173.808 46.6081 173.456 46.9601 173.008 46.9601Z" fill="black"/>
<path d="M173.008 27.5519C172.688 27.5519 172.4 27.3599 172.272 27.0559C172.096 26.6399 172.304 26.1759 172.704 26.0159L188.752 19.3599C189.152 19.1839 189.632 19.3919 189.792 19.7919C189.968 20.2079 189.76 20.6719 189.36 20.8319L173.312 27.4879C173.216 27.5359 173.104 27.5519 173.008 27.5519Z" fill="black"/>
<path d="M173.376 27.616C173.376 27.616 173.312 27.616 173.28 27.616L112.192 20.704C111.76 20.656 111.44 20.256 111.488 19.824C111.536 19.376 111.936 19.072 112.368 19.12L173.456 26.032C173.888 26.08 174.208 26.48 174.16 26.912C174.112 27.328 173.76 27.616 173.36 27.616H173.376Z" fill="black"/>
<path d="M126.096 14.4799V17.0719L117.552 16.3519V14.3359L121.856 9.7119C122.864 8.6239 123.04 7.9199 123.04 7.2639C123.04 6.1919 122.432 5.5199 121.232 5.4719C120.272 5.4239 119.456 5.8239 118.912 6.7039L117.056 5.1359C117.904 3.6479 119.456 2.7359 121.488 2.8159C124.032 2.9279 125.744 4.5759 125.744 7.0879C125.744 8.4319 125.424 9.6319 123.808 11.3119L121.184 14.0799L126.096 14.4639V14.4799Z" fill="black"/>
<path d="M127.808 10.4159L132.624 10.7199V13.2319L127.792 12.8799V10.3999L127.808 10.4159Z" fill="black"/>
<path d="M146.272 15.7281L144.144 15.5681L144.112 18.6241L141.216 18.3841L141.248 15.3601L134.528 14.8481V12.6401L140.496 3.87207L143.616 4.00007L137.968 12.4001L141.36 12.6241L141.392 9.92007L144.208 10.0961L144.176 12.8321L146.304 12.9761L146.272 15.7441V15.7281Z" fill="black"/>
<path d="M149.104 14.608C149.136 12.064 150.912 10.32 153.312 10.448C154.544 10.528 155.616 11.056 156.336 12L155.584 12.736C154.976 11.984 154.224 11.616 153.36 11.552C151.584 11.44 150.256 12.768 150.24 14.672C150.224 16.576 151.504 18.08 153.28 18.224C154.144 18.288 154.912 18.016 155.536 17.36L156.272 18.208C155.52 19.04 154.448 19.424 153.216 19.328C150.848 19.12 149.12 17.12 149.136 14.592L149.104 14.608Z" fill="black"/>
<path d="M165.792 20.3199L165.904 13.7599L162.768 18.9759L162.224 18.9279L159.328 13.3599L159.232 19.7599L158.112 19.6639L158.24 10.8479L159.2 10.9119L162.544 17.3919L166.128 11.3279L167.136 11.3919L166.976 20.4319L165.808 20.3359L165.792 20.3199Z" fill="black"/>
</svg>
