<?xml version="1.0" standalone="no"?>
<!DOCTYPE svg PUBLIC "-//W3C//DTD SVG 20010904//EN"
 "http://www.w3.org/TR/2001/REC-SVG-20010904/DTD/svg10.dtd">
<svg version="1.0" xmlns="http://www.w3.org/2000/svg"
 width="35.000000pt" height="35.000000pt" viewBox="0 0 35.000000 35.000000"
 preserveAspectRatio="xMidYMid meet">

<g transform="translate(0.000000,35.000000) scale(0.100000,-0.100000)"
fill="#000000" stroke="none">
<path d="M101 332 c-106 -53 -133 -186 -55 -272 42 -46 90 -64 150 -57 137 15
202 181 111 284 -55 62 -137 81 -206 45z m159 -104 c-1 -20 -28 -129 -34 -135
-3 -3 -17 2 -30 11 -15 9 -27 12 -31 6 -10 -16 -25 -12 -25 6 0 9 19 34 43 56
43 41 40 42 -25 1 -31 -19 -42 -21 -65 -12 -27 11 -25 12 57 45 94 37 110 40
110 22z"/>
</g>
</svg>
