<?xml version="1.0" standalone="no"?>
<!DOCTYPE svg PUBLIC "-//W3C//DTD SVG 20010904//EN"
 "http://www.w3.org/TR/2001/REC-SVG-20010904/DTD/svg10.dtd">
<svg version="1.0" xmlns="http://www.w3.org/2000/svg"
 width="35.000000pt" height="35.000000pt" viewBox="0 0 35.000000 35.000000"
 preserveAspectRatio="xMidYMid meet">

<g transform="translate(0.000000,35.000000) scale(0.100000,-0.100000)"
fill="#000000" stroke="none">
<path d="M98 330 c-103 -56 -129 -183 -55 -267 118 -135 332 -34 304 144 -18
110 -152 176 -249 123z m92 -130 c0 -36 16 -39 32 -5 8 18 19 25 41 25 29 0
29 -1 13 -22 -28 -40 -29 -48 -6 -74 l23 -24 -33 0 c-20 0 -38 7 -46 18 -12
16 -13 16 -19 0 -8 -20 -37 -23 -66 -8 -20 11 -69 82 -69 100 0 22 47 10 58
-15 16 -36 36 -32 29 5 -6 27 -4 30 18 30 21 0 25 -5 25 -30z"/>
</g>
</svg>
